G04 PROTEUS GERBER X2 FILE*
%TF.GenerationSoftware,Labcenter,Proteus,8.13-SP0-Build31525*%
%TF.CreationDate,2024-10-28T14:47:28+00:00*%
%TF.FileFunction,Copper,L2,Bot*%
%TF.FilePolarity,Positive*%
%TF.Part,Single*%
%TF.SameCoordinates,{34124c4d-f2d1-4a7d-b498-645d5fdee650}*%
%FSLAX45Y45*%
%MOMM*%
G01*
%TA.AperFunction,Conductor*%
%ADD15C,1.270000*%
%ADD16C,2.032000*%
%ADD17C,5.080000*%
%ADD18C,1.524000*%
%ADD19C,2.540000*%
%ADD70C,0.254000*%
%TA.AperFunction,ComponentPad*%
%ADD10C,3.048000*%
%ADD11C,1.778000*%
%ADD12C,2.286000*%
%TA.AperFunction,ComponentPad*%
%ADD13R,2.032000X2.032000*%
%TA.AperFunction,ComponentPad*%
%ADD14C,1.524000*%
%TA.AperFunction,NonConductor*%
%ADD71C,0.203200*%
%TD.AperFunction*%
D15*
X+2960000Y+4250000D02*
X+2623500Y+3913500D01*
X+2084000Y+3913500D01*
D16*
X+1860000Y+3224000D02*
X+1860000Y+2996800D01*
X+2276800Y+2580000D01*
D15*
X+2960000Y+3234000D02*
X+2960000Y+2856800D01*
X+2683200Y+2580000D01*
X+2610000Y+3214000D02*
X+2480000Y+3084000D01*
X+2480000Y+2580000D01*
X+2240000Y+4216000D02*
X+2240000Y+4230000D01*
X+2596331Y+4230000D01*
X+2619117Y+4252786D01*
X+2610000Y+4230000D01*
X+2596331Y+4230000D01*
X+2240000Y+4230000D02*
X+1886895Y+4230000D01*
X+1865571Y+4208676D01*
X+1860000Y+4240000D01*
X+3730000Y+4259299D02*
X+3773328Y+4302627D01*
X+3730000Y+4270000D01*
X+3730000Y+4259299D01*
D16*
X+7670000Y+3372000D02*
X+6268000Y+3372000D01*
X+6260000Y+3380000D01*
X+6260000Y+4100000D02*
X+6260000Y+3998400D01*
X+6260000Y+3380000D02*
X+6260000Y+2961000D01*
X+6220000Y+2921000D01*
X+6220000Y+2620000D01*
D17*
X+4710000Y+1170000D02*
X+5549590Y+1170000D01*
X+5863353Y+856237D01*
X+7504237Y+856237D01*
X+7640000Y+992000D01*
D15*
X+1250000Y+3700000D02*
X+2084000Y+3700000D01*
X+2090000Y+3700000D01*
X+2084000Y+3913500D02*
X+2084000Y+3700000D01*
X+2084000Y+3356000D01*
X+2240000Y+3200000D01*
D16*
X+1860000Y+3224000D02*
X+1026000Y+3224000D01*
X+742000Y+3508000D01*
X+742000Y+3700000D01*
D15*
X+4234000Y+2240406D02*
X+4224000Y+2230000D01*
D16*
X+4234000Y+2026000D02*
X+4234000Y+2240406D01*
D15*
X+4234000Y+2370000D01*
X+4234000Y+2026000D02*
X+4224000Y+2026000D01*
X+4224000Y+2230000D01*
D16*
X+3227675Y+2230000D01*
X+3217675Y+2240000D01*
X+2357114Y+2240000D01*
X+2313314Y+2283800D01*
X+2276800Y+2360000D01*
X+2276800Y+2580000D01*
D18*
X+6260000Y+3380000D02*
X+6260000Y+3555484D01*
D16*
X+6260000Y+3380000D01*
X+5996000Y+1520000D02*
X+5286000Y+2230000D01*
X+5240000Y+2230000D01*
D18*
X+6250000Y+1520000D02*
X+6549757Y+1520000D01*
X+6625700Y+1444057D01*
X+6740000Y+1364000D01*
X+6730000Y+2874000D02*
X+6730000Y+2390000D01*
X+6740000Y+2380000D01*
D19*
X+6730000Y+3890000D02*
X+6740000Y+3880000D01*
X+7670000Y+3880000D01*
D16*
X+7640000Y+1500000D02*
X+7200000Y+1940000D01*
X+6590000Y+1940000D01*
X+6220000Y+2310000D01*
X+6220000Y+2620000D01*
X+742000Y+1360000D02*
X+680000Y+1422000D01*
X+680000Y+1880000D01*
X+1380000Y+2580000D01*
X+2276800Y+2580000D01*
D19*
X+742000Y+3700000D02*
X+369793Y+3700000D01*
X+365899Y+3696106D01*
X+742000Y+1360000D02*
X+350000Y+1360000D01*
X+340000Y+1350000D01*
X+1250000Y+1360000D02*
X+1250000Y+1340000D01*
X+2920000Y+1340000D01*
X+3218400Y+1638400D01*
X+3300000Y+1740000D01*
D16*
X+4500000Y+1740000D02*
X+4500000Y+2026000D01*
X+4234000Y+2026000D01*
X+3300000Y+590000D02*
X+3630000Y+260000D01*
X+7800332Y+260000D01*
X+7800332Y+271489D01*
X+8080000Y+551157D01*
X+8080000Y+3880000D01*
X+7670000Y+3880000D01*
D15*
X+3720000Y+3120000D02*
X+3070000Y+3120000D01*
X+3040300Y+3149700D01*
X+2960000Y+3264000D01*
X+2960000Y+3234000D01*
D18*
X+5966000Y+2620000D02*
X+5966000Y+2650000D01*
X+5486000Y+3130000D01*
X+4920000Y+3130000D01*
D16*
X+4224000Y+2230000D02*
X+4224000Y+3110644D01*
X+4725206Y+3611850D01*
X+6233634Y+3611850D01*
X+6260000Y+3585484D01*
X+6260000Y+3555484D01*
D18*
X+6260000Y+3585484D02*
X+6260000Y+3998400D01*
X+6260000Y+4100000D01*
D16*
X+6260000Y+3998400D02*
X+6260000Y+3585484D01*
D15*
X+3730000Y+4279299D02*
X+3730000Y+4259299D01*
D16*
X+6006000Y+4100000D02*
X+6006000Y+4080000D01*
X+5044588Y+4080000D01*
X+5044589Y+4079999D01*
X+4920000Y+4270000D01*
D19*
X+4490000Y+550000D02*
X+3300000Y+1740000D01*
X+3730000Y+4259299D02*
X+3700701Y+4230000D01*
D70*
X+3487503Y+4230000D02*
X+3487503Y+4248920D01*
D15*
X+2960000Y+4250000D02*
X+2960000Y+4230000D01*
X+3487503Y+4230000D01*
D19*
X+3540000Y+3690000D02*
X+3540000Y+4230000D01*
D70*
X+3540000Y+4246597D01*
X+3542323Y+4248920D01*
D15*
X+3487503Y+4230000D02*
X+3540000Y+4230000D01*
D19*
X+3700701Y+4230000D01*
D10*
X+1250000Y+3700000D03*
X+742000Y+3700000D03*
X+1250000Y+1360000D03*
X+742000Y+1360000D03*
D11*
X+2610000Y+4230000D03*
X+2610000Y+3214000D03*
D12*
X+2960000Y+3234000D03*
X+2960000Y+4250000D03*
D13*
X+3730000Y+4270000D03*
X+3720000Y+3120000D03*
X+3540000Y+3690000D03*
X+4920000Y+4270000D03*
X+4920000Y+3130000D03*
X+6260000Y+4100000D03*
X+6006000Y+4100000D03*
X+6220000Y+2620000D03*
X+5966000Y+2620000D03*
D12*
X+6740000Y+1364000D03*
X+6740000Y+2380000D03*
D13*
X+6250000Y+1520000D03*
X+5996000Y+1520000D03*
D11*
X+5240000Y+2230000D03*
X+4224000Y+2230000D03*
X+2240000Y+3200000D03*
X+2240000Y+4216000D03*
X+1860000Y+4240000D03*
X+1860000Y+3224000D03*
D13*
X+4490000Y+550000D03*
X+4500000Y+1740000D03*
X+4710000Y+1170000D03*
X+3300000Y+590000D03*
X+3300000Y+1740000D03*
D10*
X+7640000Y+1500000D03*
X+7640000Y+992000D03*
D14*
X+2276800Y+2580000D03*
X+2480000Y+2580000D03*
X+2683200Y+2580000D03*
D10*
X+7670000Y+3880000D03*
X+7670000Y+3372000D03*
D12*
X+6730000Y+2874000D03*
X+6730000Y+3890000D03*
D71*
X+20000Y+20000D02*
X+8720000Y+20000D01*
X+8720000Y+4880000D01*
X+20000Y+4880000D01*
X+20000Y+20000D01*
X+2487600Y+356800D02*
X+2640000Y+356800D01*
X+2640000Y+509200D01*
X+2487600Y+509200D01*
X+2640000Y+433000D02*
X+2538400Y+433000D01*
X+2436800Y+509200D02*
X+2436800Y+356800D01*
X+2284400Y+356800D01*
X+2081200Y+356800D02*
X+2233600Y+356800D01*
X+2233600Y+509200D01*
X+2081200Y+509200D01*
X+2233600Y+433000D02*
X+2132000Y+433000D01*
X+1878000Y+382200D02*
X+1903400Y+356800D01*
X+1979600Y+356800D01*
X+2030400Y+407600D01*
X+2030400Y+458400D01*
X+1979600Y+509200D01*
X+1903400Y+509200D01*
X+1878000Y+483800D01*
X+1827200Y+509200D02*
X+1674800Y+509200D01*
X+1751000Y+509200D02*
X+1751000Y+356800D01*
X+1624000Y+356800D02*
X+1624000Y+509200D01*
X+1497000Y+509200D01*
X+1471600Y+483800D01*
X+1471600Y+458400D01*
X+1497000Y+433000D01*
X+1624000Y+433000D01*
X+1497000Y+433000D02*
X+1471600Y+407600D01*
X+1471600Y+356800D01*
X+1420800Y+458400D02*
X+1370000Y+509200D01*
X+1319200Y+509200D01*
X+1268400Y+458400D01*
X+1268400Y+407600D01*
X+1319200Y+356800D01*
X+1370000Y+356800D01*
X+1420800Y+407600D01*
X+1420800Y+458400D01*
X+1217600Y+356800D02*
X+1217600Y+509200D01*
X+1141400Y+433000D01*
X+1065200Y+509200D01*
X+1065200Y+356800D01*
X+1014400Y+356800D02*
X+1014400Y+458400D01*
X+963600Y+509200D01*
X+912800Y+509200D01*
X+862000Y+458400D01*
X+862000Y+356800D01*
X+1014400Y+407600D02*
X+862000Y+407600D01*
X+811200Y+356800D02*
X+811200Y+509200D01*
X+684200Y+509200D01*
X+658800Y+483800D01*
X+658800Y+458400D01*
X+684200Y+433000D01*
X+811200Y+433000D01*
X+684200Y+433000D02*
X+658800Y+407600D01*
X+658800Y+356800D01*
X+608000Y+509200D02*
X+608000Y+356800D01*
X+455600Y+509200D02*
X+531800Y+433000D01*
X+455600Y+356800D01*
X+608000Y+433000D02*
X+531800Y+433000D01*
M02*
