G04 PROTEUS GERBER X2 FILE*
%TF.GenerationSoftware,Labcenter,Proteus,8.13-SP0-Build31525*%
%TF.CreationDate,2024-10-30T04:27:48+00:00*%
%TF.FileFunction,Copper,L2,Bot*%
%TF.FilePolarity,Positive*%
%TF.Part,Single*%
%TF.SameCoordinates,{7e0819cd-3aa5-4556-a237-21aa8943194a}*%
%FSLAX45Y45*%
%MOMM*%
G01*
%TA.AperFunction,Conductor*%
%ADD19C,2.540000*%
%ADD70C,1.524000*%
%ADD71C,2.286000*%
%ADD20C,1.270000*%
%ADD21C,0.254000*%
%ADD22C,1.778000*%
%TA.AperFunction,ComponentPad*%
%ADD10C,3.048000*%
%ADD11C,3.810000*%
%ADD12C,2.286000*%
%AMDIL003*
4,1,8,
-0.762000,0.965200,-0.457200,1.270000,0.457200,1.270000,0.762000,0.965200,0.762000,-0.965200,
0.457200,-1.270000,-0.457200,-1.270000,-0.762000,-0.965200,-0.762000,0.965200,
0*%
%ADD13DIL003*%
%TA.AperFunction,ComponentPad*%
%ADD14R,2.032000X2.032000*%
%TA.AperFunction,ComponentPad*%
%ADD15C,1.524000*%
%AMDIL006*
4,1,8,
-1.270000,0.457200,-0.965200,0.762000,0.965200,0.762000,1.270000,0.457200,1.270000,-0.457200,
0.965200,-0.762000,-0.965200,-0.762000,-1.270000,-0.457200,-1.270000,0.457200,
0*%
%TA.AperFunction,ComponentPad*%
%ADD16DIL006*%
%TA.AperFunction,WasherPad*%
%ADD17R,1.120000X1.120000*%
%TA.AperFunction,ComponentPad*%
%ADD18C,1.120000*%
%TA.AperFunction,NonConductor*%
%ADD23C,0.203200*%
%TD.AperFunction*%
D19*
X+3730000Y+4259299D02*
X+3773328Y+4302627D01*
X+3730000Y+4270000D01*
X+3730000Y+4259299D01*
D70*
X+3720000Y+3120000D02*
X+3070000Y+3120000D01*
X+3040300Y+3149700D01*
X+2960000Y+3264000D01*
X+2960000Y+3234000D01*
D19*
X+3730000Y+4279299D02*
X+3730000Y+4259299D01*
X+3700701Y+4230000D01*
X+3487503Y+4230000D02*
X+3487503Y+4248920D01*
X+3487503Y+4230000D02*
X+3540000Y+4230000D01*
X+3700701Y+4230000D01*
X+1112000Y+870000D02*
X+1112000Y+2315288D01*
X+1174480Y+2377768D01*
X+1122000Y+2390000D01*
D70*
X+2960000Y+4230000D02*
X+2960000Y+4250000D01*
D19*
X+3370000Y+4230000D02*
X+2960000Y+4230000D01*
X+3370000Y+4230000D02*
X+3487503Y+4230000D01*
D70*
X+1140000Y+3860000D02*
X+1960000Y+4680000D01*
X+2264000Y+4680000D01*
X+2516800Y+2520000D02*
X+2516800Y+3053200D01*
X+2140000Y+3430000D01*
X+2140000Y+3853883D01*
X+2179160Y+3893043D01*
X+2156000Y+3860000D01*
X+2516800Y+2520000D02*
X+2216800Y+2820000D01*
X+2060000Y+2820000D01*
X+1511044Y+2820000D01*
X+1233444Y+2542400D01*
X+1122000Y+2390000D01*
X+2720000Y+2520000D02*
X+2720000Y+3880000D01*
X+2450000Y+4150000D01*
X+1938000Y+4150000D01*
X+1648000Y+3860000D01*
D19*
X+3280000Y+4680000D02*
X+3540000Y+4420000D01*
X+3540000Y+4246597D01*
X+3540000Y+4230000D01*
X+3540000Y+4180000D01*
X+3540000Y+3690000D02*
X+3540000Y+4180000D01*
X+3540000Y+4246597D02*
X+3542323Y+4248920D01*
X+4490000Y+2400000D02*
X+4490000Y+3430144D01*
X+4225884Y+3694260D01*
X+3544260Y+3694260D01*
X+3540000Y+3690000D01*
D70*
X+2923200Y+2520000D02*
X+2923200Y+3197200D01*
X+2960000Y+3234000D01*
D19*
X+5836000Y+3780000D02*
X+5332840Y+3780000D01*
X+4944440Y+4168400D01*
X+4920000Y+4270000D01*
D70*
X+6110000Y+3010000D02*
X+6110000Y+3700000D01*
X+6080000Y+3730000D01*
X+6090000Y+3780000D01*
X+5856000Y+3010000D02*
X+5040000Y+3010000D01*
X+4920000Y+3130000D01*
D19*
X+4800000Y+580000D02*
X+4800000Y+720000D01*
X+3813565Y+1706435D01*
X+3666347Y+1706435D01*
X+3610000Y+1770000D01*
X+3410000Y+1570000D01*
X+1880000Y+1570000D01*
X+1620000Y+1310000D01*
X+1620000Y+870000D01*
X+3610000Y+620000D02*
X+3960000Y+270000D01*
X+7368811Y+270000D01*
X+7516840Y+418029D01*
X+7516840Y+3513160D01*
X+7240000Y+3790000D01*
X+7020000Y+3790000D01*
X+1630000Y+2390000D02*
X+1948743Y+2390000D01*
X+1993739Y+2345004D01*
X+2323090Y+2015653D01*
X+2350000Y+2015653D01*
X+3474000Y+2400000D02*
X+3089653Y+2015653D01*
X+2966928Y+2015653D01*
X+2350000Y+2015653D01*
D71*
X+4920000Y+4270000D02*
X+5220000Y+4570000D01*
X+6474000Y+4570000D01*
X+7490000Y+4570000D02*
X+7490000Y+4260000D01*
X+7020000Y+3790000D01*
D19*
X+7020000Y+2450000D02*
X+7020000Y+1980000D01*
X+7020000Y+1810000D01*
X+7020000Y+1765334D01*
D70*
X+2516800Y+2520000D02*
X+2516800Y+2343200D01*
X+2570000Y+2290000D01*
X+3013042Y+2290000D01*
X+3276144Y+2553102D01*
X+3386579Y+2663537D01*
X+3592724Y+2663537D01*
X+3786463Y+2663537D01*
X+3880000Y+2570000D01*
X+4122811Y+2327189D01*
X+4122811Y+1942029D01*
X+4294840Y+1770000D01*
X+4740000Y+1770000D01*
D20*
X+6060000Y+760000D02*
X+6060000Y+1376289D01*
X+6065711Y+1382000D01*
X+5880000Y+1382000D02*
X+6065711Y+1382000D01*
X+6888889Y+1382000D01*
X+6985755Y+1285134D01*
X+7010000Y+1292000D01*
X+5860000Y+760000D02*
X+5506912Y+1113088D01*
X+5506912Y+1285134D01*
X+5506912Y+1465756D01*
X+5673423Y+1632267D01*
X+5860000Y+1632267D01*
X+5876267Y+1632267D01*
X+5880000Y+1636000D01*
D21*
X+4780000Y+1770000D02*
X+4810000Y+1770000D01*
X+4740000Y+1770000D02*
X+4780000Y+1770000D01*
D20*
X+6110000Y+3010000D02*
X+6110000Y+2837847D01*
X+6017579Y+2745426D01*
X+5191793Y+2745426D01*
X+5043722Y+2597355D01*
X+5043722Y+2577000D01*
X+5050000Y+2450000D01*
X+5880000Y+1636000D02*
X+6176000Y+1636000D01*
X+6320000Y+1780000D01*
X+6320000Y+2432780D01*
X+6337220Y+2450000D01*
D21*
X+7010000Y+1800000D02*
X+7010000Y+2448065D01*
X+7008065Y+2450000D01*
D20*
X+6352542Y+2465322D02*
X+6094241Y+2465322D01*
X+6078919Y+2450000D01*
X+6062563Y+2433644D01*
X+6066000Y+2450000D01*
X+6337220Y+2450000D02*
X+6352542Y+2465322D01*
X+6353588Y+2466368D01*
D21*
X+7008065Y+2450000D02*
X+7020000Y+2450000D01*
D20*
X+4810000Y+1770000D02*
X+4903440Y+1863440D01*
X+5063441Y+1863440D01*
X+5650001Y+2450000D01*
X+6066000Y+2450000D01*
X+5020000Y+1200000D02*
X+5020000Y+1390000D01*
X+5520000Y+1890000D01*
X+5880000Y+1890000D01*
D21*
X+6066000Y+2450000D02*
X+6078919Y+2450000D01*
X+6337220Y+2450000D01*
X+6444709Y+2450000D01*
X+6980000Y+2450000D01*
X+6994032Y+2464032D01*
X+7020000Y+2490000D01*
D22*
X+7020000Y+2690000D01*
X+7020000Y+2734126D01*
X+7020000Y+3309686D01*
X+7036910Y+3326596D01*
X+7020000Y+3282000D01*
D20*
X+7008065Y+2450000D02*
X+6994032Y+2464032D01*
X+6992743Y+2465322D01*
X+6352542Y+2465322D01*
X+6980000Y+2450000D02*
X+7008065Y+2450000D01*
D22*
X+7020000Y+3282000D02*
X+7020000Y+2734126D01*
D10*
X+1630000Y+2390000D03*
X+1122000Y+2390000D03*
X+1620000Y+870000D03*
D11*
X+1112000Y+870000D03*
D12*
X+2960000Y+3234000D03*
X+2960000Y+4250000D03*
D11*
X+3730000Y+4270000D03*
X+3720000Y+3120000D03*
X+3540000Y+3690000D03*
X+4920000Y+4270000D03*
X+4920000Y+3130000D03*
D13*
X+6090000Y+3780000D03*
X+5836000Y+3780000D03*
X+6110000Y+3010000D03*
X+5856000Y+3010000D03*
D12*
X+3474000Y+2400000D03*
X+4490000Y+2400000D03*
D14*
X+4800000Y+580000D03*
D11*
X+4810000Y+1770000D03*
X+5020000Y+1200000D03*
X+3610000Y+620000D03*
X+3610000Y+1770000D03*
X+7010000Y+1800000D03*
X+7010000Y+1292000D03*
D15*
X+2516800Y+2520000D03*
X+2720000Y+2520000D03*
X+2923200Y+2520000D03*
D11*
X+7020000Y+3790000D03*
X+7020000Y+3282000D03*
D12*
X+6474000Y+4570000D03*
X+7490000Y+4570000D03*
D10*
X+1140000Y+3860000D03*
X+1648000Y+3860000D03*
X+2156000Y+3860000D03*
D13*
X+5050000Y+2450000D03*
X+6066000Y+2450000D03*
D16*
X+3280000Y+4680000D03*
X+2264000Y+4680000D03*
D14*
X+5880000Y+1890000D03*
X+5880000Y+1636000D03*
X+5880000Y+1382000D03*
D17*
X+6060000Y+760000D03*
D18*
X+5860000Y+760000D03*
D23*
X+610000Y+0D02*
X+7980000Y+0D01*
X+7980000Y+4880000D01*
X+610000Y+4880000D01*
X+610000Y+0D01*
X+2897600Y+386800D02*
X+3050000Y+386800D01*
X+3050000Y+539200D01*
X+2897600Y+539200D01*
X+3050000Y+463000D02*
X+2948400Y+463000D01*
X+2846800Y+539200D02*
X+2846800Y+386800D01*
X+2694400Y+386800D01*
X+2491200Y+386800D02*
X+2643600Y+386800D01*
X+2643600Y+539200D01*
X+2491200Y+539200D01*
X+2643600Y+463000D02*
X+2542000Y+463000D01*
X+2288000Y+412200D02*
X+2313400Y+386800D01*
X+2389600Y+386800D01*
X+2440400Y+437600D01*
X+2440400Y+488400D01*
X+2389600Y+539200D01*
X+2313400Y+539200D01*
X+2288000Y+513800D01*
X+2237200Y+539200D02*
X+2084800Y+539200D01*
X+2161000Y+539200D02*
X+2161000Y+386800D01*
X+2034000Y+386800D02*
X+2034000Y+539200D01*
X+1907000Y+539200D01*
X+1881600Y+513800D01*
X+1881600Y+488400D01*
X+1907000Y+463000D01*
X+2034000Y+463000D01*
X+1907000Y+463000D02*
X+1881600Y+437600D01*
X+1881600Y+386800D01*
X+1830800Y+488400D02*
X+1780000Y+539200D01*
X+1729200Y+539200D01*
X+1678400Y+488400D01*
X+1678400Y+437600D01*
X+1729200Y+386800D01*
X+1780000Y+386800D01*
X+1830800Y+437600D01*
X+1830800Y+488400D01*
X+1627600Y+386800D02*
X+1627600Y+539200D01*
X+1551400Y+463000D01*
X+1475200Y+539200D01*
X+1475200Y+386800D01*
X+1424400Y+386800D02*
X+1424400Y+488400D01*
X+1373600Y+539200D01*
X+1322800Y+539200D01*
X+1272000Y+488400D01*
X+1272000Y+386800D01*
X+1424400Y+437600D02*
X+1272000Y+437600D01*
X+1221200Y+386800D02*
X+1221200Y+539200D01*
X+1094200Y+539200D01*
X+1068800Y+513800D01*
X+1068800Y+488400D01*
X+1094200Y+463000D01*
X+1221200Y+463000D01*
X+1094200Y+463000D02*
X+1068800Y+437600D01*
X+1068800Y+386800D01*
X+1018000Y+539200D02*
X+1018000Y+386800D01*
X+865600Y+539200D02*
X+941800Y+463000D01*
X+865600Y+386800D01*
X+1018000Y+463000D02*
X+941800Y+463000D01*
X+2860000Y+142200D02*
X+2860000Y+243800D01*
X+2834600Y+269200D01*
X+2733000Y+269200D01*
X+2707600Y+243800D01*
X+2707600Y+142200D01*
X+2733000Y+116800D01*
X+2834600Y+116800D01*
X+2860000Y+142200D01*
X+2860000Y+116800D02*
X+2707600Y+269200D01*
X+2504400Y+218400D02*
X+2529800Y+193000D01*
X+2606000Y+193000D01*
X+2631400Y+218400D01*
X+2631400Y+243800D01*
X+2606000Y+269200D01*
X+2529800Y+269200D01*
X+2504400Y+243800D01*
X+2504400Y+142200D01*
X+2529800Y+116800D01*
X+2606000Y+116800D01*
X+2402800Y+193000D02*
X+2428200Y+218400D01*
X+2428200Y+243800D01*
X+2402800Y+269200D01*
X+2326600Y+269200D01*
X+2301200Y+243800D01*
X+2301200Y+218400D01*
X+2326600Y+193000D01*
X+2402800Y+193000D01*
X+2428200Y+167600D01*
X+2428200Y+142200D01*
X+2402800Y+116800D01*
X+2326600Y+116800D01*
X+2301200Y+142200D01*
X+2301200Y+167600D01*
X+2326600Y+193000D01*
X+2225000Y+269200D02*
X+2098000Y+269200D01*
X+2098000Y+243800D01*
X+2225000Y+116800D01*
X+2021800Y+269200D02*
X+1894800Y+269200D01*
X+1894800Y+243800D01*
X+2021800Y+116800D01*
X+1691600Y+218400D02*
X+1717000Y+193000D01*
X+1793200Y+193000D01*
X+1818600Y+218400D01*
X+1818600Y+243800D01*
X+1793200Y+269200D01*
X+1717000Y+269200D01*
X+1691600Y+243800D01*
X+1691600Y+142200D01*
X+1717000Y+116800D01*
X+1793200Y+116800D01*
X+1615400Y+243800D02*
X+1590000Y+269200D01*
X+1513800Y+269200D01*
X+1488400Y+243800D01*
X+1488400Y+218400D01*
X+1513800Y+193000D01*
X+1590000Y+193000D01*
X+1615400Y+167600D01*
X+1615400Y+116800D01*
X+1488400Y+116800D01*
X+1285200Y+218400D02*
X+1310600Y+193000D01*
X+1386800Y+193000D01*
X+1412200Y+218400D01*
X+1412200Y+243800D01*
X+1386800Y+269200D01*
X+1310600Y+269200D01*
X+1285200Y+243800D01*
X+1285200Y+142200D01*
X+1310600Y+116800D01*
X+1386800Y+116800D01*
X+1082000Y+269200D02*
X+1209000Y+269200D01*
X+1209000Y+218400D01*
X+1107400Y+218400D01*
X+1082000Y+193000D01*
X+1082000Y+142200D01*
X+1107400Y+116800D01*
X+1183600Y+116800D01*
X+1209000Y+142200D01*
X+878800Y+167600D02*
X+1031200Y+167600D01*
X+929600Y+269200D01*
X+929600Y+116800D01*
M02*
