G04 PROTEUS GERBER X2 FILE*
%TF.GenerationSoftware,Labcenter,Proteus,8.13-SP0-Build31525*%
%TF.CreationDate,2024-10-30T04:27:48+00:00*%
%TF.FileFunction,AssemblyDrawing,Top*%
%TF.FilePolarity,Positive*%
%TF.Part,Single*%
%TF.SameCoordinates,{7e0819cd-3aa5-4556-a237-21aa8943194a}*%
%FSLAX45Y45*%
%MOMM*%
G01*
%TA.AperFunction,Material*%
%ADD24C,0.203200*%
%ADD35C,1.219200*%
%ADD36C,0.076270*%
%ADD37C,0.082480*%
%ADD38C,0.914400*%
%ADD39C,0.186690*%
%ADD40C,0.084660*%
%ADD41C,1.016000*%
%ADD42C,0.106680*%
%ADD43C,0.063500*%
%ADD44C,1.524000*%
%ADD45C,0.162340*%
%ADD46C,0.609600*%
%ADD47C,0.168480*%
%ADD48C,0.139820*%
%ADD49C,0.155140*%
%ADD50C,0.110230*%
%ADD51C,0.812800*%
%ADD52C,0.194730*%
%ADD53C,0.050000*%
%ADD54C,0.448000*%
%ADD55C,0.178220*%
%TD.AperFunction*%
D24*
X+857840Y+1871840D02*
X+1894160Y+1871840D01*
X+1894160Y+2908160D01*
X+857840Y+2908160D01*
X+857840Y+1871840D01*
D35*
X+1630000Y+2390000D02*
X+1630000Y+2390000D01*
D36*
X+1228696Y+1995262D02*
X+1236324Y+1986681D01*
X+1236324Y+1960937D01*
X+1221068Y+1943775D01*
X+1205813Y+1943775D01*
X+1190557Y+1960937D01*
X+1190557Y+1986681D01*
X+1198185Y+1995262D01*
X+1236324Y+2012425D02*
X+1205813Y+2012425D01*
X+1190557Y+2029587D01*
X+1190557Y+2046750D01*
X+1205813Y+2063912D01*
X+1236324Y+2063912D01*
X+1221068Y+2012425D02*
X+1221068Y+2063912D01*
X+1236324Y+2081075D02*
X+1190557Y+2081075D01*
X+1190557Y+2123981D01*
X+1198185Y+2132562D01*
X+1205813Y+2132562D01*
X+1213440Y+2123981D01*
X+1213440Y+2081075D01*
X+1213440Y+2123981D02*
X+1221068Y+2132562D01*
X+1236324Y+2132562D01*
X+1221068Y+2184050D02*
X+1221068Y+2201212D01*
X+1236324Y+2201212D01*
X+1236324Y+2166887D01*
X+1221068Y+2149725D01*
X+1205813Y+2149725D01*
X+1190557Y+2166887D01*
X+1190557Y+2192631D01*
X+1198185Y+2201212D01*
X+1236324Y+2218375D02*
X+1205813Y+2218375D01*
X+1190557Y+2235537D01*
X+1190557Y+2252700D01*
X+1205813Y+2269862D01*
X+1236324Y+2269862D01*
X+1221068Y+2218375D02*
X+1221068Y+2269862D01*
X+1236324Y+2355675D02*
X+1190557Y+2355675D01*
X+1190557Y+2398581D01*
X+1198185Y+2407162D01*
X+1205813Y+2407162D01*
X+1213440Y+2398581D01*
X+1221068Y+2407162D01*
X+1228696Y+2407162D01*
X+1236324Y+2398581D01*
X+1236324Y+2355675D01*
X+1213440Y+2355675D02*
X+1213440Y+2398581D01*
X+1236324Y+2424325D02*
X+1205813Y+2424325D01*
X+1190557Y+2441487D01*
X+1190557Y+2458650D01*
X+1205813Y+2475812D01*
X+1236324Y+2475812D01*
X+1221068Y+2424325D02*
X+1221068Y+2475812D01*
X+1190557Y+2492975D02*
X+1190557Y+2544462D01*
X+1190557Y+2518718D02*
X+1236324Y+2518718D01*
X+1236324Y+2613112D02*
X+1236324Y+2561625D01*
X+1190557Y+2561625D01*
X+1190557Y+2613112D01*
X+1213440Y+2561625D02*
X+1213440Y+2595950D01*
X+1236324Y+2630275D02*
X+1190557Y+2630275D01*
X+1190557Y+2673181D01*
X+1198185Y+2681762D01*
X+1205813Y+2681762D01*
X+1213440Y+2673181D01*
X+1213440Y+2630275D01*
X+1213440Y+2673181D02*
X+1221068Y+2681762D01*
X+1236324Y+2681762D01*
X+1190557Y+2707506D02*
X+1190557Y+2741831D01*
X+1190557Y+2724668D02*
X+1236324Y+2724668D01*
X+1236324Y+2707506D02*
X+1236324Y+2741831D01*
X+1236324Y+2767575D02*
X+1205813Y+2767575D01*
X+1190557Y+2784737D01*
X+1190557Y+2801900D01*
X+1205813Y+2819062D01*
X+1236324Y+2819062D01*
X+1221068Y+2767575D02*
X+1221068Y+2819062D01*
D24*
X+847840Y+351840D02*
X+1884160Y+351840D01*
X+1884160Y+1388160D01*
X+847840Y+1388160D01*
X+847840Y+351840D01*
D35*
X+1620000Y+870000D02*
X+1620000Y+870000D01*
D37*
X+1219938Y+480240D02*
X+1228187Y+470960D01*
X+1228187Y+443120D01*
X+1211689Y+424560D01*
X+1195191Y+424560D01*
X+1178693Y+443120D01*
X+1178693Y+470960D01*
X+1186942Y+480240D01*
X+1228187Y+498800D02*
X+1195191Y+498800D01*
X+1178693Y+517360D01*
X+1178693Y+535920D01*
X+1195191Y+554480D01*
X+1228187Y+554480D01*
X+1211689Y+498800D02*
X+1211689Y+554480D01*
X+1228187Y+573040D02*
X+1178693Y+573040D01*
X+1178693Y+619440D01*
X+1186942Y+628720D01*
X+1195191Y+628720D01*
X+1203440Y+619440D01*
X+1203440Y+573040D01*
X+1203440Y+619440D02*
X+1211689Y+628720D01*
X+1228187Y+628720D01*
X+1211689Y+684400D02*
X+1211689Y+702960D01*
X+1228187Y+702960D01*
X+1228187Y+665840D01*
X+1211689Y+647280D01*
X+1195191Y+647280D01*
X+1178693Y+665840D01*
X+1178693Y+693680D01*
X+1186942Y+702960D01*
X+1228187Y+721520D02*
X+1195191Y+721520D01*
X+1178693Y+740080D01*
X+1178693Y+758640D01*
X+1195191Y+777200D01*
X+1228187Y+777200D01*
X+1211689Y+721520D02*
X+1211689Y+777200D01*
X+1228187Y+870000D02*
X+1178693Y+870000D01*
X+1178693Y+916400D01*
X+1186942Y+925680D01*
X+1195191Y+925680D01*
X+1203440Y+916400D01*
X+1203440Y+870000D01*
X+1203440Y+916400D02*
X+1211689Y+925680D01*
X+1228187Y+925680D01*
X+1195191Y+944240D02*
X+1178693Y+962800D01*
X+1178693Y+981360D01*
X+1195191Y+999920D01*
X+1211689Y+999920D01*
X+1228187Y+981360D01*
X+1228187Y+962800D01*
X+1211689Y+944240D01*
X+1195191Y+944240D01*
X+1178693Y+1018480D02*
X+1219938Y+1018480D01*
X+1228187Y+1027760D01*
X+1228187Y+1064880D01*
X+1219938Y+1074160D01*
X+1178693Y+1074160D01*
X+1178693Y+1092720D02*
X+1178693Y+1148400D01*
X+1178693Y+1120560D02*
X+1228187Y+1120560D01*
X+1228187Y+1222640D02*
X+1228187Y+1166960D01*
X+1178693Y+1166960D01*
X+1178693Y+1222640D01*
X+1203440Y+1166960D02*
X+1203440Y+1204080D01*
X+1228187Y+1241200D02*
X+1178693Y+1241200D01*
X+1178693Y+1287600D01*
X+1186942Y+1296880D01*
X+1195191Y+1296880D01*
X+1203440Y+1287600D01*
X+1203440Y+1241200D01*
X+1203440Y+1287600D02*
X+1211689Y+1296880D01*
X+1228187Y+1296880D01*
D24*
X+2817760Y+3119700D02*
X+3104780Y+3119700D01*
X+3104780Y+4364300D01*
X+2817760Y+4364300D01*
X+2817760Y+3119700D01*
D38*
X+2960000Y+4250000D02*
X+2960000Y+4250000D01*
D39*
X+3017277Y+3493969D02*
X+2905263Y+3493969D01*
X+2905263Y+3577979D01*
X+2942601Y+3619984D01*
X+2979939Y+3619984D01*
X+3017277Y+3577979D01*
X+3017277Y+3493969D01*
X+2942601Y+3703995D02*
X+2905263Y+3746000D01*
X+3017277Y+3746000D01*
D24*
X+3592840Y+4132840D02*
X+3867160Y+4132840D01*
X+3867160Y+4407160D01*
X+3592840Y+4407160D01*
X+3592840Y+4132840D01*
D40*
X+3755400Y+4193801D02*
X+3704601Y+4193801D01*
X+3704601Y+4241425D01*
X+3713067Y+4250950D01*
X+3721534Y+4250950D01*
X+3730000Y+4241425D01*
X+3738467Y+4250950D01*
X+3746934Y+4250950D01*
X+3755400Y+4241425D01*
X+3755400Y+4193801D01*
X+3730000Y+4193801D02*
X+3730000Y+4241425D01*
X+3721534Y+4289049D02*
X+3704601Y+4308099D01*
X+3755400Y+4308099D01*
D24*
X+3582840Y+2982840D02*
X+3857160Y+2982840D01*
X+3857160Y+3257160D01*
X+3582840Y+3257160D01*
X+3582840Y+2982840D01*
D40*
X+3745400Y+3043801D02*
X+3694601Y+3043801D01*
X+3694601Y+3091425D01*
X+3703067Y+3100950D01*
X+3711534Y+3100950D01*
X+3720000Y+3091425D01*
X+3728467Y+3100950D01*
X+3736934Y+3100950D01*
X+3745400Y+3091425D01*
X+3745400Y+3043801D01*
X+3720000Y+3043801D02*
X+3720000Y+3091425D01*
X+3703067Y+3129524D02*
X+3694601Y+3139049D01*
X+3694601Y+3167624D01*
X+3703067Y+3177149D01*
X+3711534Y+3177149D01*
X+3720000Y+3167624D01*
X+3720000Y+3139049D01*
X+3728467Y+3129524D01*
X+3745400Y+3129524D01*
X+3745400Y+3177149D01*
D24*
X+3402840Y+3552840D02*
X+3677160Y+3552840D01*
X+3677160Y+3827160D01*
X+3402840Y+3827160D01*
X+3402840Y+3552840D01*
D40*
X+3556934Y+3632851D02*
X+3565400Y+3623326D01*
X+3565400Y+3594751D01*
X+3548467Y+3575702D01*
X+3531534Y+3575702D01*
X+3514601Y+3594751D01*
X+3514601Y+3623326D01*
X+3523067Y+3632851D01*
X+3531534Y+3651901D02*
X+3514601Y+3670950D01*
X+3514601Y+3690000D01*
X+3531534Y+3709050D01*
X+3548467Y+3709050D01*
X+3565400Y+3690000D01*
X+3565400Y+3670950D01*
X+3548467Y+3651901D01*
X+3531534Y+3651901D01*
X+3565400Y+3728100D02*
X+3514601Y+3728100D01*
X+3540000Y+3756674D01*
X+3514601Y+3785249D01*
X+3565400Y+3785249D01*
D24*
X+4782840Y+4132840D02*
X+5057160Y+4132840D01*
X+5057160Y+4407160D01*
X+4782840Y+4407160D01*
X+4782840Y+4132840D01*
D40*
X+4936934Y+4289050D02*
X+4945400Y+4279525D01*
X+4945400Y+4250950D01*
X+4928467Y+4231901D01*
X+4911534Y+4231901D01*
X+4894601Y+4250950D01*
X+4894601Y+4279525D01*
X+4903067Y+4289050D01*
D24*
X+4782840Y+2992840D02*
X+5057160Y+2992840D01*
X+5057160Y+3267160D01*
X+4782840Y+3267160D01*
X+4782840Y+2992840D01*
D40*
X+4945400Y+3091901D02*
X+4911534Y+3091901D01*
X+4894601Y+3110950D01*
X+4894601Y+3130000D01*
X+4911534Y+3149050D01*
X+4945400Y+3149050D01*
X+4928467Y+3091901D02*
X+4928467Y+3149050D01*
D24*
X+5698840Y+3642840D02*
X+6227160Y+3642840D01*
X+6227160Y+3917160D01*
X+5698840Y+3917160D01*
X+5698840Y+3642840D01*
D41*
X+6090000Y+3780000D02*
X+6090000Y+3780000D01*
D42*
X+5725002Y+3769332D02*
X+5725002Y+3758664D01*
X+5737003Y+3747996D01*
X+5785009Y+3747996D01*
X+5797011Y+3758664D01*
X+5797011Y+3812004D01*
X+5845017Y+3790668D02*
X+5869020Y+3812004D01*
X+5869020Y+3747996D01*
X+5917026Y+3758664D02*
X+5917026Y+3801336D01*
X+5929027Y+3812004D01*
X+5977033Y+3812004D01*
X+5989035Y+3801336D01*
X+5989035Y+3758664D01*
X+5977033Y+3747996D01*
X+5929027Y+3747996D01*
X+5917026Y+3758664D01*
X+5917026Y+3747996D02*
X+5989035Y+3812004D01*
D24*
X+5718840Y+2872840D02*
X+6247160Y+2872840D01*
X+6247160Y+3147160D01*
X+5718840Y+3147160D01*
X+5718840Y+2872840D01*
D41*
X+6110000Y+3010000D02*
X+6110000Y+3010000D01*
D42*
X+5793008Y+2999332D02*
X+5793008Y+2988664D01*
X+5805009Y+2977996D01*
X+5853015Y+2977996D01*
X+5865017Y+2988664D01*
X+5865017Y+3042004D01*
X+5961029Y+2999332D02*
X+5889020Y+2999332D01*
X+5937026Y+3042004D01*
X+5937026Y+2977996D01*
D24*
X+3359700Y+2255220D02*
X+4604300Y+2255220D01*
X+4604300Y+2542240D01*
X+3359700Y+2542240D01*
X+3359700Y+2255220D01*
D38*
X+4490000Y+2400000D02*
X+4490000Y+2400000D01*
D39*
X+3733969Y+2342723D02*
X+3733969Y+2454737D01*
X+3817979Y+2454737D01*
X+3859984Y+2417399D01*
X+3859984Y+2380061D01*
X+3817979Y+2342723D01*
X+3733969Y+2342723D01*
X+3922992Y+2436068D02*
X+3943995Y+2454737D01*
X+4007003Y+2454737D01*
X+4028005Y+2436068D01*
X+4028005Y+2417399D01*
X+4007003Y+2398730D01*
X+4028005Y+2380061D01*
X+4028005Y+2361392D01*
X+4007003Y+2342723D01*
X+3943995Y+2342723D01*
X+3922992Y+2361392D01*
X+3964997Y+2398730D02*
X+4007003Y+2398730D01*
D24*
X+4662840Y+442840D02*
X+4937160Y+442840D01*
X+4937160Y+717160D01*
X+4662840Y+717160D01*
X+4662840Y+442840D01*
D40*
X+4825400Y+503801D02*
X+4774601Y+503801D01*
X+4774601Y+551425D01*
X+4783067Y+560950D01*
X+4791534Y+560950D01*
X+4800000Y+551425D01*
X+4808467Y+560950D01*
X+4816934Y+560950D01*
X+4825400Y+551425D01*
X+4825400Y+503801D01*
X+4800000Y+503801D02*
X+4800000Y+551425D01*
X+4783067Y+589524D02*
X+4774601Y+599049D01*
X+4774601Y+627624D01*
X+4783067Y+637149D01*
X+4791534Y+637149D01*
X+4800000Y+627624D01*
X+4808467Y+637149D01*
X+4816934Y+637149D01*
X+4825400Y+627624D01*
X+4825400Y+599049D01*
X+4816934Y+589524D01*
X+4800000Y+608574D02*
X+4800000Y+627624D01*
D24*
X+4672840Y+1632840D02*
X+4947160Y+1632840D01*
X+4947160Y+1907160D01*
X+4672840Y+1907160D01*
X+4672840Y+1632840D01*
D40*
X+4835400Y+1693801D02*
X+4784601Y+1693801D01*
X+4784601Y+1741425D01*
X+4793067Y+1750950D01*
X+4801534Y+1750950D01*
X+4810000Y+1741425D01*
X+4818467Y+1750950D01*
X+4826934Y+1750950D01*
X+4835400Y+1741425D01*
X+4835400Y+1693801D01*
X+4810000Y+1693801D02*
X+4810000Y+1741425D01*
X+4818467Y+1827149D02*
X+4818467Y+1770000D01*
X+4784601Y+1808099D01*
X+4835400Y+1808099D01*
D24*
X+4882840Y+1062840D02*
X+5157160Y+1062840D01*
X+5157160Y+1337160D01*
X+4882840Y+1337160D01*
X+4882840Y+1062840D01*
D43*
X+5032700Y+1128562D02*
X+5039050Y+1121418D01*
X+5039050Y+1099987D01*
X+5026350Y+1085700D01*
X+5013650Y+1085700D01*
X+5000950Y+1099987D01*
X+5000950Y+1121418D01*
X+5007300Y+1128562D01*
X+5013650Y+1142850D02*
X+5000950Y+1157137D01*
X+5000950Y+1171425D01*
X+5013650Y+1185712D01*
X+5026350Y+1185712D01*
X+5039050Y+1171425D01*
X+5039050Y+1157137D01*
X+5026350Y+1142850D01*
X+5013650Y+1142850D01*
X+5039050Y+1200000D02*
X+5000950Y+1200000D01*
X+5020000Y+1221431D01*
X+5000950Y+1242862D01*
X+5039050Y+1242862D01*
X+5013650Y+1271437D02*
X+5000950Y+1285725D01*
X+5039050Y+1285725D01*
D24*
X+3472840Y+482840D02*
X+3747160Y+482840D01*
X+3747160Y+757160D01*
X+3472840Y+757160D01*
X+3472840Y+482840D01*
D40*
X+3626934Y+600950D02*
X+3635400Y+591425D01*
X+3635400Y+562850D01*
X+3618467Y+543801D01*
X+3601534Y+543801D01*
X+3584601Y+562850D01*
X+3584601Y+591425D01*
X+3593067Y+600950D01*
X+3601534Y+639049D02*
X+3584601Y+658099D01*
X+3635400Y+658099D01*
D24*
X+3472840Y+1632840D02*
X+3747160Y+1632840D01*
X+3747160Y+1907160D01*
X+3472840Y+1907160D01*
X+3472840Y+1632840D01*
D40*
X+3635400Y+1693801D02*
X+3601534Y+1693801D01*
X+3584601Y+1712850D01*
X+3584601Y+1731900D01*
X+3601534Y+1750950D01*
X+3635400Y+1750950D01*
X+3618467Y+1693801D02*
X+3618467Y+1750950D01*
X+3601534Y+1789049D02*
X+3584601Y+1808099D01*
X+3635400Y+1808099D01*
D24*
X+6491840Y+1027840D02*
X+7528160Y+1027840D01*
X+7528160Y+2064160D01*
X+6491840Y+2064160D01*
X+6491840Y+1027840D01*
D44*
X+7010000Y+1800000D02*
X+7010000Y+1800000D01*
D45*
X+6571661Y+1343350D02*
X+6589925Y+1327115D01*
X+6662981Y+1327115D01*
X+6681245Y+1343350D01*
X+6681245Y+1359585D01*
X+6662981Y+1375820D01*
X+6589925Y+1375820D01*
X+6571661Y+1392054D01*
X+6571661Y+1408289D01*
X+6589925Y+1424524D01*
X+6662981Y+1424524D01*
X+6681245Y+1408289D01*
X+6717774Y+1327115D02*
X+6717774Y+1392054D01*
X+6754302Y+1424524D01*
X+6790830Y+1424524D01*
X+6827358Y+1392054D01*
X+6827358Y+1327115D01*
X+6717774Y+1359585D02*
X+6827358Y+1359585D01*
X+6863887Y+1424524D02*
X+6863887Y+1327115D01*
X+6973471Y+1327115D01*
X+7028264Y+1424524D02*
X+7101320Y+1424524D01*
X+7064792Y+1424524D02*
X+7064792Y+1327115D01*
X+7028264Y+1327115D02*
X+7101320Y+1327115D01*
X+7156113Y+1327115D02*
X+7156113Y+1424524D01*
X+7229169Y+1424524D01*
X+7265697Y+1392054D01*
X+7265697Y+1359585D01*
X+7229169Y+1327115D01*
X+7156113Y+1327115D01*
X+7302226Y+1327115D02*
X+7302226Y+1392054D01*
X+7338754Y+1424524D01*
X+7375282Y+1424524D01*
X+7411810Y+1392054D01*
X+7411810Y+1327115D01*
X+7302226Y+1359585D02*
X+7411810Y+1359585D01*
D24*
X+2366940Y+2344740D02*
X+3073060Y+2344740D01*
X+3073060Y+2847660D01*
X+2366940Y+2847660D01*
X+2366940Y+2344740D01*
D46*
X+2516800Y+2520000D02*
X+2516800Y+2520000D01*
D47*
X+2658533Y+2613048D02*
X+2696442Y+2646745D01*
X+2734351Y+2646745D01*
X+2772260Y+2613048D01*
X+2772260Y+2579351D01*
X+2734351Y+2545654D01*
X+2696442Y+2545654D01*
X+2658533Y+2579351D01*
X+2658533Y+2613048D01*
X+2734351Y+2579351D02*
X+2772260Y+2545654D01*
X+2848079Y+2613048D02*
X+2885988Y+2646745D01*
X+2885988Y+2545654D01*
D24*
X+6501840Y+3017840D02*
X+7538160Y+3017840D01*
X+7538160Y+4054160D01*
X+6501840Y+4054160D01*
X+6501840Y+3017840D01*
D44*
X+7020000Y+3790000D02*
X+7020000Y+3790000D01*
D48*
X+6579567Y+3323874D02*
X+6579567Y+3407766D01*
X+6658215Y+3407766D01*
X+6673945Y+3393784D01*
X+6673945Y+3379802D01*
X+6658215Y+3365820D01*
X+6673945Y+3351838D01*
X+6673945Y+3337856D01*
X+6658215Y+3323874D01*
X+6579567Y+3323874D01*
X+6579567Y+3365820D02*
X+6658215Y+3365820D01*
X+6705405Y+3323874D02*
X+6705405Y+3379802D01*
X+6736864Y+3407766D01*
X+6768324Y+3407766D01*
X+6799783Y+3379802D01*
X+6799783Y+3323874D01*
X+6705405Y+3351838D02*
X+6799783Y+3351838D01*
X+6831243Y+3407766D02*
X+6925621Y+3407766D01*
X+6878432Y+3407766D02*
X+6878432Y+3323874D01*
X+7051459Y+3323874D02*
X+6957081Y+3323874D01*
X+6957081Y+3407766D01*
X+7051459Y+3407766D01*
X+6957081Y+3365820D02*
X+7020000Y+3365820D01*
X+7082919Y+3323874D02*
X+7082919Y+3407766D01*
X+7161567Y+3407766D01*
X+7177297Y+3393784D01*
X+7177297Y+3379802D01*
X+7161567Y+3365820D01*
X+7082919Y+3365820D01*
X+7161567Y+3365820D02*
X+7177297Y+3351838D01*
X+7177297Y+3323874D01*
X+7224486Y+3407766D02*
X+7287405Y+3407766D01*
X+7255946Y+3407766D02*
X+7255946Y+3323874D01*
X+7224486Y+3323874D02*
X+7287405Y+3323874D01*
X+7334595Y+3323874D02*
X+7334595Y+3379802D01*
X+7366054Y+3407766D01*
X+7397514Y+3407766D01*
X+7428973Y+3379802D01*
X+7428973Y+3323874D01*
X+7334595Y+3351838D02*
X+7428973Y+3351838D01*
D24*
X+6359700Y+4425220D02*
X+7604300Y+4425220D01*
X+7604300Y+4712240D01*
X+6359700Y+4712240D01*
X+6359700Y+4425220D01*
D38*
X+7490000Y+4570000D02*
X+7490000Y+4570000D01*
D39*
X+6733969Y+4512723D02*
X+6733969Y+4624737D01*
X+6817979Y+4624737D01*
X+6859984Y+4587399D01*
X+6859984Y+4550061D01*
X+6817979Y+4512723D01*
X+6733969Y+4512723D01*
X+6922992Y+4606068D02*
X+6943995Y+4624737D01*
X+7007003Y+4624737D01*
X+7028005Y+4606068D01*
X+7028005Y+4587399D01*
X+7007003Y+4568730D01*
X+6943995Y+4568730D01*
X+6922992Y+4550061D01*
X+6922992Y+4512723D01*
X+7028005Y+4512723D01*
D24*
X+875840Y+3341840D02*
X+2420160Y+3341840D01*
X+2420160Y+4378160D01*
X+875840Y+4378160D01*
X+875840Y+3341840D01*
D35*
X+1140000Y+3860000D02*
X+1140000Y+3860000D01*
D49*
X+1321869Y+3813458D02*
X+1321869Y+3906542D01*
X+1409135Y+3906542D01*
X+1426588Y+3891028D01*
X+1426588Y+3875514D01*
X+1409135Y+3860000D01*
X+1321869Y+3860000D01*
X+1461495Y+3875514D02*
X+1496401Y+3906542D01*
X+1531308Y+3906542D01*
X+1566214Y+3875514D01*
X+1566214Y+3844486D01*
X+1531308Y+3813458D01*
X+1496401Y+3813458D01*
X+1461495Y+3844486D01*
X+1461495Y+3875514D01*
X+1601121Y+3906542D02*
X+1705840Y+3906542D01*
X+1653480Y+3906542D02*
X+1653480Y+3813458D01*
X+1915279Y+3875514D02*
X+1950186Y+3906542D01*
X+1950186Y+3813458D01*
X+2019999Y+3828972D02*
X+2019999Y+3891028D01*
X+2037452Y+3906542D01*
X+2107265Y+3906542D01*
X+2124718Y+3891028D01*
X+2124718Y+3828972D01*
X+2107265Y+3813458D01*
X+2037452Y+3813458D01*
X+2019999Y+3828972D01*
X+2019999Y+3813458D02*
X+2124718Y+3906542D01*
X+2159625Y+3906542D02*
X+2159625Y+3813458D01*
X+2264344Y+3906542D02*
X+2211984Y+3860000D01*
X+2264344Y+3813458D01*
X+2159625Y+3860000D02*
X+2211984Y+3860000D01*
D24*
X+4961100Y+2361100D02*
X+6154900Y+2361100D01*
X+6154900Y+2538900D01*
X+4961100Y+2538900D01*
X+4961100Y+2361100D01*
D41*
X+5050000Y+2450000D02*
X+5050000Y+2450000D01*
D50*
X+5528638Y+2416929D02*
X+5528638Y+2483070D01*
X+5590645Y+2483070D01*
X+5603047Y+2472047D01*
X+5603047Y+2461023D01*
X+5590645Y+2450000D01*
X+5528638Y+2450000D01*
X+5590645Y+2450000D02*
X+5603047Y+2438976D01*
X+5603047Y+2416929D01*
X+5652653Y+2461023D02*
X+5677456Y+2483070D01*
X+5677456Y+2416929D01*
D24*
X+2175100Y+4591100D02*
X+3368900Y+4591100D01*
X+3368900Y+4768900D01*
X+2175100Y+4768900D01*
X+2175100Y+4591100D01*
D41*
X+3280000Y+4680000D02*
X+3280000Y+4680000D01*
D50*
X+2528529Y+4691023D02*
X+2553332Y+4713070D01*
X+2553332Y+4646929D01*
X+2677347Y+4713070D02*
X+2615339Y+4713070D01*
X+2615339Y+4691023D01*
X+2664945Y+4691023D01*
X+2677347Y+4680000D01*
X+2677347Y+4657952D01*
X+2664945Y+4646929D01*
X+2627741Y+4646929D01*
X+2615339Y+4657952D01*
X+2702150Y+4713070D02*
X+2702150Y+4646929D01*
X+2776559Y+4713070D02*
X+2739354Y+4680000D01*
X+2776559Y+4646929D01*
X+2702150Y+4680000D02*
X+2739354Y+4680000D01*
X+2838566Y+4657952D02*
X+2850968Y+4657952D01*
X+2850968Y+4646929D01*
X+2838566Y+4646929D01*
X+2838566Y+4657952D01*
D24*
X+5742840Y+1244840D02*
X+6144160Y+1244840D01*
X+6144160Y+2027160D01*
X+5742840Y+2027160D01*
X+5742840Y+1244840D01*
D51*
X+5880000Y+1890000D02*
X+5880000Y+1890000D01*
D52*
X+5885080Y+1371841D02*
X+5982447Y+1371841D01*
X+6001920Y+1393748D01*
X+6001920Y+1481377D01*
X+5982447Y+1503285D01*
X+5885080Y+1503285D01*
X+5924027Y+1590914D02*
X+5885080Y+1634729D01*
X+6001920Y+1634729D01*
D53*
X+5985000Y+760000D02*
X+5984914Y+762076D01*
X+5984212Y+766229D01*
X+5982742Y+770382D01*
X+5980340Y+774535D01*
X+5976667Y+778634D01*
X+5972514Y+781643D01*
X+5968361Y+783560D01*
X+5964208Y+784643D01*
X+5960055Y+785000D01*
X+5960000Y+785000D01*
X+5935000Y+760000D02*
X+5935086Y+762076D01*
X+5935788Y+766229D01*
X+5937258Y+770382D01*
X+5939660Y+774535D01*
X+5943333Y+778634D01*
X+5947486Y+781643D01*
X+5951639Y+783560D01*
X+5955792Y+784643D01*
X+5959945Y+785000D01*
X+5960000Y+785000D01*
X+5935000Y+760000D02*
X+5935086Y+757924D01*
X+5935788Y+753771D01*
X+5937258Y+749618D01*
X+5939660Y+745465D01*
X+5943333Y+741366D01*
X+5947486Y+738357D01*
X+5951639Y+736440D01*
X+5955792Y+735357D01*
X+5959945Y+735000D01*
X+5960000Y+735000D01*
X+5985000Y+760000D02*
X+5984914Y+757924D01*
X+5984212Y+753771D01*
X+5982742Y+749618D01*
X+5980340Y+745465D01*
X+5976667Y+741366D01*
X+5972514Y+738357D01*
X+5968361Y+736440D01*
X+5964208Y+735357D01*
X+5960055Y+735000D01*
X+5960000Y+735000D01*
X+5925000Y+760000D02*
X+5995000Y+760000D01*
X+5960000Y+725000D02*
X+5960000Y+795000D01*
X+6235000Y+485000D02*
X+6235000Y+760000D01*
X+6229528Y+816228D01*
X+6213784Y+868227D01*
X+6188775Y+914989D01*
X+6155508Y+955508D01*
X+6114990Y+988775D01*
X+6068227Y+1013784D01*
X+6016228Y+1029528D01*
X+5960000Y+1035000D01*
X+5903772Y+1029528D01*
X+5851773Y+1013784D01*
X+5805010Y+988775D01*
X+5764492Y+955508D01*
X+5731225Y+914989D01*
X+5706216Y+868227D01*
X+5690472Y+816228D01*
X+5685000Y+760000D01*
X+5690472Y+703772D01*
X+5706216Y+651773D01*
X+5731225Y+605011D01*
X+5764492Y+564492D01*
X+5805010Y+531225D01*
X+5851773Y+506216D01*
X+5903772Y+490472D01*
X+5960000Y+485000D01*
X+6235000Y+485000D01*
D54*
X+5860000Y+760000D02*
X+5860000Y+760000D01*
D55*
X+6095596Y+719899D02*
X+6113418Y+699848D01*
X+6113418Y+639697D01*
X+6077773Y+599597D01*
X+6042128Y+599597D01*
X+6006483Y+639697D01*
X+6006483Y+699848D01*
X+6024305Y+719899D01*
X+6024305Y+780050D02*
X+6006483Y+800100D01*
X+6006483Y+860251D01*
X+6024305Y+880302D01*
X+6042128Y+880302D01*
X+6059950Y+860251D01*
X+6077773Y+880302D01*
X+6095596Y+880302D01*
X+6113418Y+860251D01*
X+6113418Y+800100D01*
X+6095596Y+780050D01*
X+6059950Y+820151D02*
X+6059950Y+860251D01*
M02*
