G04 PROTEUS GERBER X2 FILE*
%TF.GenerationSoftware,Labcenter,Proteus,8.13-SP0-Build31525*%
%TF.CreationDate,2024-10-30T04:27:48+00:00*%
%TF.FileFunction,Copper,L1,Top*%
%TF.FilePolarity,Positive*%
%TF.Part,Single*%
%TF.SameCoordinates,{7e0819cd-3aa5-4556-a237-21aa8943194a}*%
%FSLAX45Y45*%
%MOMM*%
G01*
%TA.AperFunction,ComponentPad*%
%ADD10C,3.048000*%
%ADD11C,3.810000*%
%ADD12C,2.286000*%
%AMDIL003*
4,1,8,
-0.762000,0.965200,-0.457200,1.270000,0.457200,1.270000,0.762000,0.965200,0.762000,-0.965200,
0.457200,-1.270000,-0.457200,-1.270000,-0.762000,-0.965200,-0.762000,0.965200,
0*%
%ADD13DIL003*%
%TA.AperFunction,ComponentPad*%
%ADD14R,2.032000X2.032000*%
%TA.AperFunction,ComponentPad*%
%ADD15C,1.524000*%
%AMDIL006*
4,1,8,
-1.270000,0.457200,-0.965200,0.762000,0.965200,0.762000,1.270000,0.457200,1.270000,-0.457200,
0.965200,-0.762000,-0.965200,-0.762000,-1.270000,-0.457200,-1.270000,0.457200,
0*%
%TA.AperFunction,ComponentPad*%
%ADD16DIL006*%
%TA.AperFunction,WasherPad*%
%ADD17R,1.120000X1.120000*%
%TA.AperFunction,ComponentPad*%
%ADD18C,1.120000*%
%TD.AperFunction*%
D10*
X+1630000Y+2390000D03*
X+1122000Y+2390000D03*
X+1620000Y+870000D03*
D11*
X+1112000Y+870000D03*
D12*
X+2960000Y+3234000D03*
X+2960000Y+4250000D03*
D11*
X+3730000Y+4270000D03*
X+3720000Y+3120000D03*
X+3540000Y+3690000D03*
X+4920000Y+4270000D03*
X+4920000Y+3130000D03*
D13*
X+6090000Y+3780000D03*
X+5836000Y+3780000D03*
X+6110000Y+3010000D03*
X+5856000Y+3010000D03*
D12*
X+3474000Y+2400000D03*
X+4490000Y+2400000D03*
D14*
X+4800000Y+580000D03*
D11*
X+4810000Y+1770000D03*
X+5020000Y+1200000D03*
X+3610000Y+620000D03*
X+3610000Y+1770000D03*
X+7010000Y+1800000D03*
X+7010000Y+1292000D03*
D15*
X+2516800Y+2520000D03*
X+2720000Y+2520000D03*
X+2923200Y+2520000D03*
D11*
X+7020000Y+3790000D03*
X+7020000Y+3282000D03*
D12*
X+6474000Y+4570000D03*
X+7490000Y+4570000D03*
D10*
X+1140000Y+3860000D03*
X+1648000Y+3860000D03*
X+2156000Y+3860000D03*
D13*
X+5050000Y+2450000D03*
X+6066000Y+2450000D03*
D16*
X+3280000Y+4680000D03*
X+2264000Y+4680000D03*
D14*
X+5880000Y+1890000D03*
X+5880000Y+1636000D03*
X+5880000Y+1382000D03*
D17*
X+6060000Y+760000D03*
D18*
X+5860000Y+760000D03*
M02*
