G04 PROTEUS GERBER X2 FILE*
%TF.GenerationSoftware,Labcenter,Proteus,8.13-SP0-Build31525*%
%TF.CreationDate,2024-10-30T04:27:48+00:00*%
%TF.FileFunction,Legend,Top*%
%TF.FilePolarity,Positive*%
%TF.Part,Single*%
%TF.SameCoordinates,{7e0819cd-3aa5-4556-a237-21aa8943194a}*%
%FSLAX45Y45*%
%MOMM*%
G01*
%TA.AperFunction,Material*%
%ADD24C,0.203200*%
%TA.AperFunction,NonMaterial*%
%ADD25C,0.203200*%
%TA.AperFunction,Material*%
%ADD26C,0.120000*%
%ADD27C,0.200000*%
%TD.AperFunction*%
D24*
X+1884000Y+1882000D02*
X+1884000Y+2898000D01*
X+868000Y+1882000D02*
X+868000Y+2898000D01*
X+1884000Y+2898000D02*
X+868000Y+2898000D01*
X+1884000Y+1882000D02*
X+868000Y+1882000D01*
X+955750Y+3085160D02*
X+939875Y+3069920D01*
X+892250Y+3069920D01*
X+860500Y+3100400D01*
X+860500Y+3130880D01*
X+892250Y+3161360D01*
X+939875Y+3161360D01*
X+955750Y+3146120D01*
X+987500Y+3069920D02*
X+987500Y+3130880D01*
X+1019250Y+3161360D01*
X+1051000Y+3161360D01*
X+1082750Y+3130880D01*
X+1082750Y+3069920D01*
X+987500Y+3100400D02*
X+1082750Y+3100400D01*
X+1114500Y+3069920D02*
X+1114500Y+3161360D01*
X+1193875Y+3161360D01*
X+1209750Y+3146120D01*
X+1209750Y+3130880D01*
X+1193875Y+3115640D01*
X+1114500Y+3115640D01*
X+1193875Y+3115640D02*
X+1209750Y+3100400D01*
X+1209750Y+3069920D01*
X+1305000Y+3100400D02*
X+1336750Y+3100400D01*
X+1336750Y+3069920D01*
X+1273250Y+3069920D01*
X+1241500Y+3100400D01*
X+1241500Y+3130880D01*
X+1273250Y+3161360D01*
X+1320875Y+3161360D01*
X+1336750Y+3146120D01*
X+1368500Y+3069920D02*
X+1368500Y+3130880D01*
X+1400250Y+3161360D01*
X+1432000Y+3161360D01*
X+1463750Y+3130880D01*
X+1463750Y+3069920D01*
X+1368500Y+3100400D02*
X+1463750Y+3100400D01*
X+1622500Y+3069920D02*
X+1622500Y+3161360D01*
X+1701875Y+3161360D01*
X+1717750Y+3146120D01*
X+1717750Y+3130880D01*
X+1701875Y+3115640D01*
X+1717750Y+3100400D01*
X+1717750Y+3085160D01*
X+1701875Y+3069920D01*
X+1622500Y+3069920D01*
X+1622500Y+3115640D02*
X+1701875Y+3115640D01*
X+1749500Y+3069920D02*
X+1749500Y+3130880D01*
X+1781250Y+3161360D01*
X+1813000Y+3161360D01*
X+1844750Y+3130880D01*
X+1844750Y+3069920D01*
X+1749500Y+3100400D02*
X+1844750Y+3100400D01*
X+1876500Y+3161360D02*
X+1971750Y+3161360D01*
X+1924125Y+3161360D02*
X+1924125Y+3069920D01*
X+2098750Y+3069920D02*
X+2003500Y+3069920D01*
X+2003500Y+3161360D01*
X+2098750Y+3161360D01*
X+2003500Y+3115640D02*
X+2067000Y+3115640D01*
X+2130500Y+3069920D02*
X+2130500Y+3161360D01*
X+2209875Y+3161360D01*
X+2225750Y+3146120D01*
X+2225750Y+3130880D01*
X+2209875Y+3115640D01*
X+2130500Y+3115640D01*
X+2209875Y+3115640D02*
X+2225750Y+3100400D01*
X+2225750Y+3069920D01*
X+2273375Y+3161360D02*
X+2336875Y+3161360D01*
X+2305125Y+3161360D02*
X+2305125Y+3069920D01*
X+2273375Y+3069920D02*
X+2336875Y+3069920D01*
X+2384500Y+3069920D02*
X+2384500Y+3130880D01*
X+2416250Y+3161360D01*
X+2448000Y+3161360D01*
X+2479750Y+3130880D01*
X+2479750Y+3069920D01*
X+2384500Y+3100400D02*
X+2479750Y+3100400D01*
X+1874000Y+362000D02*
X+1874000Y+1378000D01*
X+858000Y+362000D02*
X+858000Y+1378000D01*
X+1874000Y+1378000D02*
X+858000Y+1378000D01*
X+1874000Y+362000D02*
X+858000Y+362000D01*
X+969250Y+1535160D02*
X+953375Y+1519920D01*
X+905750Y+1519920D01*
X+874000Y+1550400D01*
X+874000Y+1580880D01*
X+905750Y+1611360D01*
X+953375Y+1611360D01*
X+969250Y+1596120D01*
X+1001000Y+1519920D02*
X+1001000Y+1580880D01*
X+1032750Y+1611360D01*
X+1064500Y+1611360D01*
X+1096250Y+1580880D01*
X+1096250Y+1519920D01*
X+1001000Y+1550400D02*
X+1096250Y+1550400D01*
X+1128000Y+1519920D02*
X+1128000Y+1611360D01*
X+1207375Y+1611360D01*
X+1223250Y+1596120D01*
X+1223250Y+1580880D01*
X+1207375Y+1565640D01*
X+1128000Y+1565640D01*
X+1207375Y+1565640D02*
X+1223250Y+1550400D01*
X+1223250Y+1519920D01*
X+1318500Y+1550400D02*
X+1350250Y+1550400D01*
X+1350250Y+1519920D01*
X+1286750Y+1519920D01*
X+1255000Y+1550400D01*
X+1255000Y+1580880D01*
X+1286750Y+1611360D01*
X+1334375Y+1611360D01*
X+1350250Y+1596120D01*
X+1382000Y+1519920D02*
X+1382000Y+1580880D01*
X+1413750Y+1611360D01*
X+1445500Y+1611360D01*
X+1477250Y+1580880D01*
X+1477250Y+1519920D01*
X+1382000Y+1550400D02*
X+1477250Y+1550400D01*
X+1636000Y+1519920D02*
X+1636000Y+1611360D01*
X+1715375Y+1611360D01*
X+1731250Y+1596120D01*
X+1731250Y+1580880D01*
X+1715375Y+1565640D01*
X+1636000Y+1565640D01*
X+1715375Y+1565640D02*
X+1731250Y+1550400D01*
X+1731250Y+1519920D01*
X+1763000Y+1580880D02*
X+1794750Y+1611360D01*
X+1826500Y+1611360D01*
X+1858250Y+1580880D01*
X+1858250Y+1550400D01*
X+1826500Y+1519920D01*
X+1794750Y+1519920D01*
X+1763000Y+1550400D01*
X+1763000Y+1580880D01*
X+1890000Y+1611360D02*
X+1890000Y+1535160D01*
X+1905875Y+1519920D01*
X+1969375Y+1519920D01*
X+1985250Y+1535160D01*
X+1985250Y+1611360D01*
X+2017000Y+1611360D02*
X+2112250Y+1611360D01*
X+2064625Y+1611360D02*
X+2064625Y+1519920D01*
X+2239250Y+1519920D02*
X+2144000Y+1519920D01*
X+2144000Y+1611360D01*
X+2239250Y+1611360D01*
X+2144000Y+1565640D02*
X+2207500Y+1565640D01*
X+2271000Y+1519920D02*
X+2271000Y+1611360D01*
X+2350375Y+1611360D01*
X+2366250Y+1596120D01*
X+2366250Y+1580880D01*
X+2350375Y+1565640D01*
X+2271000Y+1565640D01*
X+2350375Y+1565640D02*
X+2366250Y+1550400D01*
X+2366250Y+1519920D01*
X+2827920Y+3482920D02*
X+3094620Y+3482920D01*
X+3094620Y+4001080D01*
X+2827920Y+4001080D01*
X+2827920Y+3482920D01*
X+3092080Y+3919800D02*
X+2830460Y+3919800D01*
X+2960000Y+4072200D02*
X+2960000Y+4001080D01*
X+2960000Y+3482920D02*
X+2960000Y+3411800D01*
X+3216700Y+3535000D02*
X+3125260Y+3535000D01*
X+3125260Y+3598500D01*
X+3155740Y+3630250D01*
X+3186220Y+3630250D01*
X+3216700Y+3598500D01*
X+3216700Y+3535000D01*
X+3155740Y+3693750D02*
X+3125260Y+3725500D01*
X+3216700Y+3725500D01*
X+3603000Y+4143000D02*
X+3857000Y+4143000D01*
X+3857000Y+4397000D01*
X+3603000Y+4397000D01*
X+3603000Y+4143000D01*
X+3989080Y+4143000D02*
X+3897640Y+4143000D01*
X+3897640Y+4222375D01*
X+3912880Y+4238250D01*
X+3928120Y+4238250D01*
X+3943360Y+4222375D01*
X+3958600Y+4238250D01*
X+3973840Y+4238250D01*
X+3989080Y+4222375D01*
X+3989080Y+4143000D01*
X+3943360Y+4143000D02*
X+3943360Y+4222375D01*
X+3928120Y+4301750D02*
X+3897640Y+4333500D01*
X+3989080Y+4333500D01*
X+3593000Y+2993000D02*
X+3847000Y+2993000D01*
X+3847000Y+3247000D01*
X+3593000Y+3247000D01*
X+3593000Y+2993000D01*
X+3979080Y+2993000D02*
X+3887640Y+2993000D01*
X+3887640Y+3072375D01*
X+3902880Y+3088250D01*
X+3918120Y+3088250D01*
X+3933360Y+3072375D01*
X+3948600Y+3088250D01*
X+3963840Y+3088250D01*
X+3979080Y+3072375D01*
X+3979080Y+2993000D01*
X+3933360Y+2993000D02*
X+3933360Y+3072375D01*
X+3902880Y+3135875D02*
X+3887640Y+3151750D01*
X+3887640Y+3199375D01*
X+3902880Y+3215250D01*
X+3918120Y+3215250D01*
X+3933360Y+3199375D01*
X+3933360Y+3151750D01*
X+3948600Y+3135875D01*
X+3979080Y+3135875D01*
X+3979080Y+3215250D01*
X+3413000Y+3563000D02*
X+3667000Y+3563000D01*
X+3667000Y+3817000D01*
X+3413000Y+3817000D01*
X+3413000Y+3563000D01*
X+3783840Y+3594750D02*
X+3799080Y+3578875D01*
X+3799080Y+3531250D01*
X+3768600Y+3499500D01*
X+3738120Y+3499500D01*
X+3707640Y+3531250D01*
X+3707640Y+3578875D01*
X+3722880Y+3594750D01*
X+3738120Y+3626500D02*
X+3707640Y+3658250D01*
X+3707640Y+3690000D01*
X+3738120Y+3721750D01*
X+3768600Y+3721750D01*
X+3799080Y+3690000D01*
X+3799080Y+3658250D01*
X+3768600Y+3626500D01*
X+3738120Y+3626500D01*
X+3799080Y+3753500D02*
X+3707640Y+3753500D01*
X+3753360Y+3801125D01*
X+3707640Y+3848750D01*
X+3799080Y+3848750D01*
X+4793000Y+4143000D02*
X+5047000Y+4143000D01*
X+5047000Y+4397000D01*
X+4793000Y+4397000D01*
X+4793000Y+4143000D01*
X+5163840Y+4301750D02*
X+5179080Y+4285875D01*
X+5179080Y+4238250D01*
X+5148600Y+4206500D01*
X+5118120Y+4206500D01*
X+5087640Y+4238250D01*
X+5087640Y+4285875D01*
X+5102880Y+4301750D01*
X+4793000Y+3003000D02*
X+5047000Y+3003000D01*
X+5047000Y+3257000D01*
X+4793000Y+3257000D01*
X+4793000Y+3003000D01*
X+5179080Y+3066500D02*
X+5118120Y+3066500D01*
X+5087640Y+3098250D01*
X+5087640Y+3130000D01*
X+5118120Y+3161750D01*
X+5179080Y+3161750D01*
X+5148600Y+3066500D02*
X+5148600Y+3161750D01*
X+5709000Y+3653000D02*
X+6217000Y+3653000D01*
X+6217000Y+3907000D01*
X+5709000Y+3907000D01*
X+5709000Y+3653000D01*
X+5772500Y+3551400D02*
X+5772500Y+3536160D01*
X+5788375Y+3520920D01*
X+5851875Y+3520920D01*
X+5867750Y+3536160D01*
X+5867750Y+3612360D01*
X+5931250Y+3581880D02*
X+5963000Y+3612360D01*
X+5963000Y+3520920D01*
X+6026500Y+3536160D02*
X+6026500Y+3597120D01*
X+6042375Y+3612360D01*
X+6105875Y+3612360D01*
X+6121750Y+3597120D01*
X+6121750Y+3536160D01*
X+6105875Y+3520920D01*
X+6042375Y+3520920D01*
X+6026500Y+3536160D01*
X+6026500Y+3520920D02*
X+6121750Y+3612360D01*
X+5729000Y+2883000D02*
X+6237000Y+2883000D01*
X+6237000Y+3137000D01*
X+5729000Y+3137000D01*
X+5729000Y+2883000D01*
X+5856000Y+2781400D02*
X+5856000Y+2766160D01*
X+5871875Y+2750920D01*
X+5935375Y+2750920D01*
X+5951250Y+2766160D01*
X+5951250Y+2842360D01*
X+6078250Y+2781400D02*
X+5983000Y+2781400D01*
X+6046500Y+2842360D01*
X+6046500Y+2750920D01*
X+3722920Y+2265380D02*
X+4241080Y+2265380D01*
X+4241080Y+2532080D01*
X+3722920Y+2532080D01*
X+3722920Y+2265380D01*
X+4159800Y+2267920D02*
X+4159800Y+2529540D01*
X+4312200Y+2400000D02*
X+4241080Y+2400000D01*
X+3722920Y+2400000D02*
X+3651800Y+2400000D01*
X+3815000Y+2113300D02*
X+3815000Y+2204740D01*
X+3878500Y+2204740D01*
X+3910250Y+2174260D01*
X+3910250Y+2143780D01*
X+3878500Y+2113300D01*
X+3815000Y+2113300D01*
X+3957875Y+2189500D02*
X+3973750Y+2204740D01*
X+4021375Y+2204740D01*
X+4037250Y+2189500D01*
X+4037250Y+2174260D01*
X+4021375Y+2159020D01*
X+4037250Y+2143780D01*
X+4037250Y+2128540D01*
X+4021375Y+2113300D01*
X+3973750Y+2113300D01*
X+3957875Y+2128540D01*
X+3989625Y+2159020D02*
X+4021375Y+2159020D01*
X+4673000Y+453000D02*
X+4927000Y+453000D01*
X+4927000Y+707000D01*
X+4673000Y+707000D01*
X+4673000Y+453000D01*
X+5059080Y+453000D02*
X+4967640Y+453000D01*
X+4967640Y+532375D01*
X+4982880Y+548250D01*
X+4998120Y+548250D01*
X+5013360Y+532375D01*
X+5028600Y+548250D01*
X+5043840Y+548250D01*
X+5059080Y+532375D01*
X+5059080Y+453000D01*
X+5013360Y+453000D02*
X+5013360Y+532375D01*
X+4982880Y+595875D02*
X+4967640Y+611750D01*
X+4967640Y+659375D01*
X+4982880Y+675250D01*
X+4998120Y+675250D01*
X+5013360Y+659375D01*
X+5028600Y+675250D01*
X+5043840Y+675250D01*
X+5059080Y+659375D01*
X+5059080Y+611750D01*
X+5043840Y+595875D01*
X+5013360Y+627625D02*
X+5013360Y+659375D01*
X+4683000Y+1643000D02*
X+4937000Y+1643000D01*
X+4937000Y+1897000D01*
X+4683000Y+1897000D01*
X+4683000Y+1643000D01*
X+5069080Y+1643000D02*
X+4977640Y+1643000D01*
X+4977640Y+1722375D01*
X+4992880Y+1738250D01*
X+5008120Y+1738250D01*
X+5023360Y+1722375D01*
X+5038600Y+1738250D01*
X+5053840Y+1738250D01*
X+5069080Y+1722375D01*
X+5069080Y+1643000D01*
X+5023360Y+1643000D02*
X+5023360Y+1722375D01*
X+5038600Y+1865250D02*
X+5038600Y+1770000D01*
X+4977640Y+1833500D01*
X+5069080Y+1833500D01*
X+4893000Y+1073000D02*
X+5147000Y+1073000D01*
X+5147000Y+1327000D01*
X+4893000Y+1327000D01*
X+4893000Y+1073000D01*
X+5263840Y+1041250D02*
X+5279080Y+1025375D01*
X+5279080Y+977750D01*
X+5248600Y+946000D01*
X+5218120Y+946000D01*
X+5187640Y+977750D01*
X+5187640Y+1025375D01*
X+5202880Y+1041250D01*
X+5218120Y+1073000D02*
X+5187640Y+1104750D01*
X+5187640Y+1136500D01*
X+5218120Y+1168250D01*
X+5248600Y+1168250D01*
X+5279080Y+1136500D01*
X+5279080Y+1104750D01*
X+5248600Y+1073000D01*
X+5218120Y+1073000D01*
X+5279080Y+1200000D02*
X+5187640Y+1200000D01*
X+5233360Y+1247625D01*
X+5187640Y+1295250D01*
X+5279080Y+1295250D01*
X+5218120Y+1358750D02*
X+5187640Y+1390500D01*
X+5279080Y+1390500D01*
X+3483000Y+493000D02*
X+3737000Y+493000D01*
X+3737000Y+747000D01*
X+3483000Y+747000D01*
X+3483000Y+493000D01*
X+3853840Y+588250D02*
X+3869080Y+572375D01*
X+3869080Y+524750D01*
X+3838600Y+493000D01*
X+3808120Y+493000D01*
X+3777640Y+524750D01*
X+3777640Y+572375D01*
X+3792880Y+588250D01*
X+3808120Y+651750D02*
X+3777640Y+683500D01*
X+3869080Y+683500D01*
X+3483000Y+1643000D02*
X+3737000Y+1643000D01*
X+3737000Y+1897000D01*
X+3483000Y+1897000D01*
X+3483000Y+1643000D01*
X+3869080Y+1643000D02*
X+3808120Y+1643000D01*
X+3777640Y+1674750D01*
X+3777640Y+1706500D01*
X+3808120Y+1738250D01*
X+3869080Y+1738250D01*
X+3838600Y+1643000D02*
X+3838600Y+1738250D01*
X+3808120Y+1801750D02*
X+3777640Y+1833500D01*
X+3869080Y+1833500D01*
X+7518000Y+2054000D02*
X+6502000Y+2054000D01*
X+7518000Y+1038000D02*
X+6502000Y+1038000D01*
X+6502000Y+2054000D02*
X+6502000Y+1038000D01*
X+7518000Y+2054000D02*
X+7518000Y+1038000D01*
X+7634840Y+1165000D02*
X+7650080Y+1180875D01*
X+7650080Y+1244375D01*
X+7634840Y+1260250D01*
X+7619600Y+1260250D01*
X+7604360Y+1244375D01*
X+7604360Y+1180875D01*
X+7589120Y+1165000D01*
X+7573880Y+1165000D01*
X+7558640Y+1180875D01*
X+7558640Y+1244375D01*
X+7573880Y+1260250D01*
X+7650080Y+1292000D02*
X+7589120Y+1292000D01*
X+7558640Y+1323750D01*
X+7558640Y+1355500D01*
X+7589120Y+1387250D01*
X+7650080Y+1387250D01*
X+7619600Y+1292000D02*
X+7619600Y+1387250D01*
X+7558640Y+1419000D02*
X+7650080Y+1419000D01*
X+7650080Y+1514250D01*
X+7558640Y+1561875D02*
X+7558640Y+1625375D01*
X+7558640Y+1593625D02*
X+7650080Y+1593625D01*
X+7650080Y+1561875D02*
X+7650080Y+1625375D01*
X+7650080Y+1673000D02*
X+7558640Y+1673000D01*
X+7558640Y+1736500D01*
X+7589120Y+1768250D01*
X+7619600Y+1768250D01*
X+7650080Y+1736500D01*
X+7650080Y+1673000D01*
X+7650080Y+1800000D02*
X+7589120Y+1800000D01*
X+7558640Y+1831750D01*
X+7558640Y+1863500D01*
X+7589120Y+1895250D01*
X+7650080Y+1895250D01*
X+7619600Y+1800000D02*
X+7619600Y+1895250D01*
X+2466000Y+2354900D02*
X+2974000Y+2354900D01*
X+2389800Y+2520000D02*
X+2394562Y+2481702D01*
X+2408850Y+2442212D01*
X+2432662Y+2400342D01*
X+2466000Y+2354900D01*
X+2389800Y+2520000D02*
X+2392431Y+2584918D01*
X+2408912Y+2644953D01*
X+2437839Y+2698942D01*
X+2477807Y+2745722D01*
X+2527412Y+2784131D01*
X+2585249Y+2813005D01*
X+2649913Y+2831183D01*
X+2720000Y+2837500D01*
X+3050200Y+2520000D02*
X+3045438Y+2481702D01*
X+3031150Y+2442212D01*
X+3007338Y+2400342D01*
X+2974000Y+2354900D01*
X+3050200Y+2520000D02*
X+3047569Y+2584918D01*
X+3031088Y+2644953D01*
X+3002161Y+2698942D01*
X+2962193Y+2745722D01*
X+2912588Y+2784131D01*
X+2854751Y+2813005D01*
X+2790087Y+2831183D01*
X+2720000Y+2837500D01*
X+2593000Y+2939100D02*
X+2624750Y+2969580D01*
X+2656500Y+2969580D01*
X+2688250Y+2939100D01*
X+2688250Y+2908620D01*
X+2656500Y+2878140D01*
X+2624750Y+2878140D01*
X+2593000Y+2908620D01*
X+2593000Y+2939100D01*
X+2656500Y+2908620D02*
X+2688250Y+2878140D01*
X+2751750Y+2939100D02*
X+2783500Y+2969580D01*
X+2783500Y+2878140D01*
X+7528000Y+4044000D02*
X+6512000Y+4044000D01*
X+7528000Y+3028000D02*
X+6512000Y+3028000D01*
X+6512000Y+4044000D02*
X+6512000Y+3028000D01*
X+7528000Y+4044000D02*
X+7528000Y+3028000D01*
X+7660080Y+3091500D02*
X+7568640Y+3091500D01*
X+7568640Y+3170875D01*
X+7583880Y+3186750D01*
X+7599120Y+3186750D01*
X+7614360Y+3170875D01*
X+7629600Y+3186750D01*
X+7644840Y+3186750D01*
X+7660080Y+3170875D01*
X+7660080Y+3091500D01*
X+7614360Y+3091500D02*
X+7614360Y+3170875D01*
X+7660080Y+3218500D02*
X+7599120Y+3218500D01*
X+7568640Y+3250250D01*
X+7568640Y+3282000D01*
X+7599120Y+3313750D01*
X+7660080Y+3313750D01*
X+7629600Y+3218500D02*
X+7629600Y+3313750D01*
X+7568640Y+3345500D02*
X+7568640Y+3440750D01*
X+7568640Y+3393125D02*
X+7660080Y+3393125D01*
X+7660080Y+3567750D02*
X+7660080Y+3472500D01*
X+7568640Y+3472500D01*
X+7568640Y+3567750D01*
X+7614360Y+3472500D02*
X+7614360Y+3536000D01*
X+7660080Y+3599500D02*
X+7568640Y+3599500D01*
X+7568640Y+3678875D01*
X+7583880Y+3694750D01*
X+7599120Y+3694750D01*
X+7614360Y+3678875D01*
X+7614360Y+3599500D01*
X+7614360Y+3678875D02*
X+7629600Y+3694750D01*
X+7660080Y+3694750D01*
X+7568640Y+3742375D02*
X+7568640Y+3805875D01*
X+7568640Y+3774125D02*
X+7660080Y+3774125D01*
X+7660080Y+3742375D02*
X+7660080Y+3805875D01*
X+7660080Y+3853500D02*
X+7599120Y+3853500D01*
X+7568640Y+3885250D01*
X+7568640Y+3917000D01*
X+7599120Y+3948750D01*
X+7660080Y+3948750D01*
X+7629600Y+3853500D02*
X+7629600Y+3948750D01*
D25*
X+4810000Y+590000D02*
X+3610000Y+590000D01*
X+4810000Y+590000D02*
X+4683000Y+717000D01*
X+4810000Y+590000D02*
X+4683000Y+463000D01*
X+3610000Y+590000D02*
X+3737000Y+463000D01*
X+3610000Y+590000D02*
X+3737000Y+717000D01*
X+4241750Y+590000D02*
X+4241641Y+592634D01*
X+4240751Y+597903D01*
X+4238889Y+603172D01*
X+4235846Y+608441D01*
X+4231191Y+613643D01*
X+4225922Y+617469D01*
X+4220653Y+619909D01*
X+4215384Y+621290D01*
X+4210115Y+621750D01*
X+4210000Y+621750D01*
X+4178250Y+590000D02*
X+4178359Y+592634D01*
X+4179249Y+597903D01*
X+4181111Y+603172D01*
X+4184154Y+608441D01*
X+4188809Y+613643D01*
X+4194078Y+617469D01*
X+4199347Y+619909D01*
X+4204616Y+621290D01*
X+4209885Y+621750D01*
X+4210000Y+621750D01*
X+4178250Y+590000D02*
X+4178359Y+587366D01*
X+4179249Y+582097D01*
X+4181111Y+576828D01*
X+4184154Y+571559D01*
X+4188809Y+566357D01*
X+4194078Y+562531D01*
X+4199347Y+560091D01*
X+4204616Y+558710D01*
X+4209885Y+558250D01*
X+4210000Y+558250D01*
X+4241750Y+590000D02*
X+4241641Y+587366D01*
X+4240751Y+582097D01*
X+4238889Y+576828D01*
X+4235846Y+571559D01*
X+4231191Y+566357D01*
X+4225922Y+562531D01*
X+4220653Y+560091D01*
X+4215384Y+558710D01*
X+4210115Y+558250D01*
X+4210000Y+558250D01*
X+3987750Y+691600D02*
X+4019500Y+722080D01*
X+4019500Y+630640D01*
X+4098875Y+706840D02*
X+4114750Y+722080D01*
X+4162375Y+722080D01*
X+4178250Y+706840D01*
X+4178250Y+691600D01*
X+4162375Y+676360D01*
X+4114750Y+676360D01*
X+4098875Y+661120D01*
X+4098875Y+630640D01*
X+4178250Y+630640D01*
X+4210000Y+630640D02*
X+4210000Y+691600D01*
X+4210000Y+676360D02*
X+4225875Y+691600D01*
X+4257625Y+661120D01*
X+4289375Y+691600D01*
X+4305250Y+676360D01*
X+4305250Y+630640D01*
X+4337000Y+630640D02*
X+4337000Y+691600D01*
X+4337000Y+676360D02*
X+4352875Y+691600D01*
X+4384625Y+661120D01*
X+4416375Y+691600D01*
X+4432250Y+676360D01*
X+4432250Y+630640D01*
X+3610000Y+590000D02*
X+3610000Y+1790000D01*
X+3610000Y+590000D02*
X+3737000Y+717000D01*
X+3610000Y+590000D02*
X+3483000Y+717000D01*
X+3610000Y+1790000D02*
X+3483000Y+1663000D01*
X+3610000Y+1790000D02*
X+3737000Y+1663000D01*
X+3641750Y+1190000D02*
X+3641641Y+1192634D01*
X+3640751Y+1197903D01*
X+3638889Y+1203172D01*
X+3635846Y+1208441D01*
X+3631191Y+1213643D01*
X+3625922Y+1217469D01*
X+3620653Y+1219909D01*
X+3615384Y+1221290D01*
X+3610115Y+1221750D01*
X+3610000Y+1221750D01*
X+3578250Y+1190000D02*
X+3578359Y+1192634D01*
X+3579249Y+1197903D01*
X+3581111Y+1203172D01*
X+3584154Y+1208441D01*
X+3588809Y+1213643D01*
X+3594078Y+1217469D01*
X+3599347Y+1219909D01*
X+3604616Y+1221290D01*
X+3609885Y+1221750D01*
X+3610000Y+1221750D01*
X+3578250Y+1190000D02*
X+3578359Y+1187366D01*
X+3579249Y+1182097D01*
X+3581111Y+1176828D01*
X+3584154Y+1171559D01*
X+3588809Y+1166357D01*
X+3594078Y+1162531D01*
X+3599347Y+1160091D01*
X+3604616Y+1158710D01*
X+3609885Y+1158250D01*
X+3610000Y+1158250D01*
X+3641750Y+1190000D02*
X+3641641Y+1187366D01*
X+3640751Y+1182097D01*
X+3638889Y+1176828D01*
X+3635846Y+1171559D01*
X+3631191Y+1166357D01*
X+3625922Y+1162531D01*
X+3620653Y+1160091D01*
X+3615384Y+1158710D01*
X+3610115Y+1158250D01*
X+3610000Y+1158250D01*
X+3508400Y+967750D02*
X+3477920Y+999500D01*
X+3569360Y+999500D01*
X+3493160Y+1078875D02*
X+3477920Y+1094750D01*
X+3477920Y+1142375D01*
X+3493160Y+1158250D01*
X+3508400Y+1158250D01*
X+3523640Y+1142375D01*
X+3523640Y+1094750D01*
X+3538880Y+1078875D01*
X+3569360Y+1078875D01*
X+3569360Y+1158250D01*
X+3569360Y+1190000D02*
X+3508400Y+1190000D01*
X+3523640Y+1190000D02*
X+3508400Y+1205875D01*
X+3538880Y+1237625D01*
X+3508400Y+1269375D01*
X+3523640Y+1285250D01*
X+3569360Y+1285250D01*
X+3569360Y+1317000D02*
X+3508400Y+1317000D01*
X+3523640Y+1317000D02*
X+3508400Y+1332875D01*
X+3538880Y+1364625D01*
X+3508400Y+1396375D01*
X+3523640Y+1412250D01*
X+3569360Y+1412250D01*
X+4810000Y+590000D02*
X+4810000Y+1790000D01*
X+4810000Y+590000D02*
X+4937000Y+717000D01*
X+4810000Y+590000D02*
X+4683000Y+717000D01*
X+4810000Y+1790000D02*
X+4683000Y+1663000D01*
X+4810000Y+1790000D02*
X+4937000Y+1663000D01*
X+4841750Y+1190000D02*
X+4841641Y+1192634D01*
X+4840751Y+1197903D01*
X+4838889Y+1203172D01*
X+4835846Y+1208441D01*
X+4831191Y+1213643D01*
X+4825922Y+1217469D01*
X+4820653Y+1219909D01*
X+4815384Y+1221290D01*
X+4810115Y+1221750D01*
X+4810000Y+1221750D01*
X+4778250Y+1190000D02*
X+4778359Y+1192634D01*
X+4779249Y+1197903D01*
X+4781111Y+1203172D01*
X+4784154Y+1208441D01*
X+4788809Y+1213643D01*
X+4794078Y+1217469D01*
X+4799347Y+1219909D01*
X+4804616Y+1221290D01*
X+4809885Y+1221750D01*
X+4810000Y+1221750D01*
X+4778250Y+1190000D02*
X+4778359Y+1187366D01*
X+4779249Y+1182097D01*
X+4781111Y+1176828D01*
X+4784154Y+1171559D01*
X+4788809Y+1166357D01*
X+4794078Y+1162531D01*
X+4799347Y+1160091D01*
X+4804616Y+1158710D01*
X+4809885Y+1158250D01*
X+4810000Y+1158250D01*
X+4841750Y+1190000D02*
X+4841641Y+1187366D01*
X+4840751Y+1182097D01*
X+4838889Y+1176828D01*
X+4835846Y+1171559D01*
X+4831191Y+1166357D01*
X+4825922Y+1162531D01*
X+4820653Y+1160091D01*
X+4815384Y+1158710D01*
X+4810115Y+1158250D01*
X+4810000Y+1158250D01*
X+4708400Y+967750D02*
X+4677920Y+999500D01*
X+4769360Y+999500D01*
X+4693160Y+1078875D02*
X+4677920Y+1094750D01*
X+4677920Y+1142375D01*
X+4693160Y+1158250D01*
X+4708400Y+1158250D01*
X+4723640Y+1142375D01*
X+4723640Y+1094750D01*
X+4738880Y+1078875D01*
X+4769360Y+1078875D01*
X+4769360Y+1158250D01*
X+4769360Y+1190000D02*
X+4708400Y+1190000D01*
X+4723640Y+1190000D02*
X+4708400Y+1205875D01*
X+4738880Y+1237625D01*
X+4708400Y+1269375D01*
X+4723640Y+1285250D01*
X+4769360Y+1285250D01*
X+4769360Y+1317000D02*
X+4708400Y+1317000D01*
X+4723640Y+1317000D02*
X+4708400Y+1332875D01*
X+4738880Y+1364625D01*
X+4708400Y+1396375D01*
X+4723640Y+1412250D01*
X+4769360Y+1412250D01*
X+3720000Y+4270000D02*
X+4920000Y+4270000D01*
X+3720000Y+4270000D02*
X+3847000Y+4143000D01*
X+3720000Y+4270000D02*
X+3847000Y+4397000D01*
X+4920000Y+4270000D02*
X+4793000Y+4397000D01*
X+4920000Y+4270000D02*
X+4793000Y+4143000D01*
X+4351750Y+4270000D02*
X+4351641Y+4272634D01*
X+4350751Y+4277903D01*
X+4348889Y+4283172D01*
X+4345846Y+4288441D01*
X+4341191Y+4293643D01*
X+4335922Y+4297469D01*
X+4330653Y+4299909D01*
X+4325384Y+4301290D01*
X+4320115Y+4301750D01*
X+4320000Y+4301750D01*
X+4288250Y+4270000D02*
X+4288359Y+4272634D01*
X+4289249Y+4277903D01*
X+4291111Y+4283172D01*
X+4294154Y+4288441D01*
X+4298809Y+4293643D01*
X+4304078Y+4297469D01*
X+4309347Y+4299909D01*
X+4314616Y+4301290D01*
X+4319885Y+4301750D01*
X+4320000Y+4301750D01*
X+4288250Y+4270000D02*
X+4288359Y+4267366D01*
X+4289249Y+4262097D01*
X+4291111Y+4256828D01*
X+4294154Y+4251559D01*
X+4298809Y+4246357D01*
X+4304078Y+4242531D01*
X+4309347Y+4240091D01*
X+4314616Y+4238710D01*
X+4319885Y+4238250D01*
X+4320000Y+4238250D01*
X+4351750Y+4270000D02*
X+4351641Y+4267366D01*
X+4350751Y+4262097D01*
X+4348889Y+4256828D01*
X+4345846Y+4251559D01*
X+4341191Y+4246357D01*
X+4335922Y+4242531D01*
X+4330653Y+4240091D01*
X+4325384Y+4238710D01*
X+4320115Y+4238250D01*
X+4320000Y+4238250D01*
X+4097750Y+4371600D02*
X+4129500Y+4402080D01*
X+4129500Y+4310640D01*
X+4208875Y+4386840D02*
X+4224750Y+4402080D01*
X+4272375Y+4402080D01*
X+4288250Y+4386840D01*
X+4288250Y+4371600D01*
X+4272375Y+4356360D01*
X+4224750Y+4356360D01*
X+4208875Y+4341120D01*
X+4208875Y+4310640D01*
X+4288250Y+4310640D01*
X+4320000Y+4310640D02*
X+4320000Y+4371600D01*
X+4320000Y+4356360D02*
X+4335875Y+4371600D01*
X+4367625Y+4341120D01*
X+4399375Y+4371600D01*
X+4415250Y+4356360D01*
X+4415250Y+4310640D01*
X+4447000Y+4310640D02*
X+4447000Y+4371600D01*
X+4447000Y+4356360D02*
X+4462875Y+4371600D01*
X+4494625Y+4341120D01*
X+4526375Y+4371600D01*
X+4542250Y+4356360D01*
X+4542250Y+4310640D01*
D24*
X+3280000Y+2830000D02*
X+5290000Y+2830000D01*
X+5290000Y+4530000D01*
X+3280000Y+4530000D01*
X+3280000Y+2830000D01*
X+3300000Y+340000D02*
X+5310000Y+340000D01*
X+5310000Y+2040000D01*
X+3300000Y+2040000D01*
X+3300000Y+340000D01*
D25*
X+610000Y+5130000D02*
X+8000000Y+5100000D01*
X+610000Y+5130000D02*
X+736483Y+5002485D01*
X+610000Y+5130000D02*
X+737514Y+5256483D01*
X+8000000Y+5100000D02*
X+7873516Y+5227514D01*
X+8000000Y+5100000D02*
X+7872485Y+4973516D01*
X+4336750Y+5115000D02*
X+4336641Y+5117634D01*
X+4335751Y+5122903D01*
X+4333889Y+5128172D01*
X+4330846Y+5133441D01*
X+4326191Y+5138643D01*
X+4320922Y+5142469D01*
X+4315653Y+5144909D01*
X+4310384Y+5146290D01*
X+4305115Y+5146750D01*
X+4305000Y+5146750D01*
X+4273250Y+5115000D02*
X+4273359Y+5117634D01*
X+4274249Y+5122903D01*
X+4276111Y+5128172D01*
X+4279154Y+5133441D01*
X+4283809Y+5138643D01*
X+4289078Y+5142469D01*
X+4294347Y+5144909D01*
X+4299616Y+5146290D01*
X+4304885Y+5146750D01*
X+4305000Y+5146750D01*
X+4273250Y+5115000D02*
X+4273359Y+5112366D01*
X+4274249Y+5107097D01*
X+4276111Y+5101828D01*
X+4279154Y+5096559D01*
X+4283809Y+5091357D01*
X+4289078Y+5087531D01*
X+4294347Y+5085091D01*
X+4299616Y+5083710D01*
X+4304885Y+5083250D01*
X+4305000Y+5083250D01*
X+4336750Y+5115000D02*
X+4336641Y+5112366D01*
X+4335751Y+5107097D01*
X+4333889Y+5101828D01*
X+4330846Y+5096559D01*
X+4326191Y+5091357D01*
X+4320922Y+5087531D01*
X+4315653Y+5085091D01*
X+4310384Y+5083710D01*
X+4305115Y+5083250D01*
X+4305000Y+5083250D01*
X+3749838Y+5249018D02*
X+3829213Y+5248741D01*
X+3829160Y+5233501D01*
X+3749519Y+5157578D01*
X+3876784Y+5233335D02*
X+3892712Y+5248519D01*
X+3940337Y+5248353D01*
X+3956159Y+5233058D01*
X+3956106Y+5217818D01*
X+3940178Y+5202633D01*
X+3955999Y+5187338D01*
X+3955946Y+5172098D01*
X+3940018Y+5156914D01*
X+3892393Y+5157080D01*
X+3876571Y+5172375D01*
X+3908428Y+5202744D02*
X+3940178Y+5202633D01*
X+4035320Y+5171820D02*
X+4051195Y+5171765D01*
X+4051142Y+5156525D01*
X+4035267Y+5156581D01*
X+4035320Y+5171820D01*
X+4210105Y+5216931D02*
X+4194177Y+5201746D01*
X+4146552Y+5201913D01*
X+4130730Y+5217208D01*
X+4130783Y+5232448D01*
X+4146711Y+5247632D01*
X+4194336Y+5247466D01*
X+4210158Y+5232171D01*
X+4209945Y+5171211D01*
X+4194017Y+5156027D01*
X+4146392Y+5156193D01*
X+4241695Y+5171101D02*
X+4241907Y+5232060D01*
X+4257835Y+5247245D01*
X+4321335Y+5247023D01*
X+4337157Y+5231728D01*
X+4336944Y+5170768D01*
X+4321016Y+5155584D01*
X+4257516Y+5155805D01*
X+4241695Y+5171101D01*
X+4241641Y+5155861D02*
X+4337210Y+5246968D01*
X+4368694Y+5170657D02*
X+4368906Y+5231616D01*
X+4384834Y+5246801D01*
X+4448334Y+5246579D01*
X+4464156Y+5231284D01*
X+4463943Y+5170324D01*
X+4448015Y+5155140D01*
X+4384515Y+5155361D01*
X+4368694Y+5170657D01*
X+4368640Y+5155417D02*
X+4464209Y+5246524D01*
X+4591155Y+5230841D02*
X+4575333Y+5246136D01*
X+4527708Y+5246302D01*
X+4511780Y+5231118D01*
X+4511567Y+5170158D01*
X+4527389Y+5154863D01*
X+4575014Y+5154697D01*
X+4590942Y+5169881D01*
X+4590995Y+5185121D01*
X+4575174Y+5200416D01*
X+4511674Y+5200638D01*
X+4622639Y+5154531D02*
X+4622852Y+5215490D01*
X+4622799Y+5200251D02*
X+4638727Y+5215435D01*
X+4670370Y+5184844D01*
X+4702227Y+5215213D01*
X+4718048Y+5199918D01*
X+4717889Y+5154198D01*
X+4749638Y+5154087D02*
X+4749851Y+5215046D01*
X+4749798Y+5199807D02*
X+4765726Y+5214991D01*
X+4797369Y+5184400D01*
X+4829226Y+5214769D01*
X+4845047Y+5199474D01*
X+4844888Y+5153754D01*
X+8370000Y+4920000D02*
X+8360000Y-70000D01*
X+8370000Y+4920000D02*
X+8242745Y+4793254D01*
X+8370000Y+4920000D02*
X+8496745Y+4792745D01*
X+8360000Y-70000D02*
X+8487254Y+56745D01*
X+8360000Y-70000D02*
X+8233254Y+57254D01*
X+8396750Y+2425000D02*
X+8396641Y+2427634D01*
X+8395751Y+2432903D01*
X+8393889Y+2438172D01*
X+8390846Y+2443441D01*
X+8386191Y+2448643D01*
X+8380922Y+2452469D01*
X+8375653Y+2454909D01*
X+8370384Y+2456290D01*
X+8365115Y+2456750D01*
X+8365000Y+2456750D01*
X+8333250Y+2425000D02*
X+8333359Y+2427634D01*
X+8334249Y+2432903D01*
X+8336111Y+2438172D01*
X+8339154Y+2443441D01*
X+8343809Y+2448643D01*
X+8349078Y+2452469D01*
X+8354347Y+2454909D01*
X+8359616Y+2456290D01*
X+8364885Y+2456750D01*
X+8365000Y+2456750D01*
X+8333250Y+2425000D02*
X+8333359Y+2422366D01*
X+8334249Y+2417097D01*
X+8336111Y+2411828D01*
X+8339154Y+2406559D01*
X+8343809Y+2401357D01*
X+8349078Y+2397531D01*
X+8354347Y+2395091D01*
X+8359616Y+2393710D01*
X+8364885Y+2393250D01*
X+8365000Y+2393250D01*
X+8396750Y+2425000D02*
X+8396641Y+2422366D01*
X+8395751Y+2417097D01*
X+8393889Y+2411828D01*
X+8390846Y+2406559D01*
X+8386191Y+2401357D01*
X+8380922Y+2397531D01*
X+8375653Y+2395091D01*
X+8370384Y+2393710D01*
X+8365115Y+2393250D01*
X+8365000Y+2393250D01*
X+8292219Y+1949000D02*
X+8291886Y+1853751D01*
X+8231148Y+1917463D01*
X+8322588Y+1917144D01*
X+8262182Y+2076106D02*
X+8277367Y+2060178D01*
X+8277200Y+2012553D01*
X+8261905Y+1996731D01*
X+8246665Y+1996784D01*
X+8231481Y+2012712D01*
X+8231647Y+2060337D01*
X+8246942Y+2076159D01*
X+8307902Y+2075946D01*
X+8323086Y+2060018D01*
X+8322920Y+2012393D01*
X+8308180Y+2155320D02*
X+8308235Y+2171195D01*
X+8323475Y+2171142D01*
X+8323419Y+2155267D01*
X+8308180Y+2155320D01*
X+8263069Y+2330105D02*
X+8278254Y+2314177D01*
X+8278087Y+2266552D01*
X+8262792Y+2250730D01*
X+8247552Y+2250783D01*
X+8232368Y+2266711D01*
X+8232534Y+2314336D01*
X+8247829Y+2330158D01*
X+8308789Y+2329945D01*
X+8323973Y+2314017D01*
X+8323807Y+2266392D01*
X+8308899Y+2361695D02*
X+8247940Y+2361907D01*
X+8232755Y+2377835D01*
X+8232977Y+2441335D01*
X+8248272Y+2457157D01*
X+8309232Y+2456944D01*
X+8324416Y+2441016D01*
X+8324195Y+2377516D01*
X+8308899Y+2361695D01*
X+8324139Y+2361641D02*
X+8233032Y+2457210D01*
X+8309343Y+2488694D02*
X+8248384Y+2488906D01*
X+8233199Y+2504834D01*
X+8233421Y+2568334D01*
X+8248716Y+2584156D01*
X+8309676Y+2583943D01*
X+8324860Y+2568015D01*
X+8324639Y+2504515D01*
X+8309343Y+2488694D01*
X+8324583Y+2488640D02*
X+8233476Y+2584209D01*
X+8264177Y+2647602D02*
X+8233808Y+2679458D01*
X+8325248Y+2679139D01*
X+8325469Y+2742639D02*
X+8264510Y+2742852D01*
X+8279749Y+2742799D02*
X+8264565Y+2758727D01*
X+8295156Y+2790370D01*
X+8264787Y+2822227D01*
X+8280082Y+2838048D01*
X+8325802Y+2837889D01*
X+8325913Y+2869638D02*
X+8264954Y+2869851D01*
X+8280193Y+2869798D02*
X+8265009Y+2885726D01*
X+8295600Y+2917369D01*
X+8265231Y+2949226D01*
X+8280526Y+2965047D01*
X+8326246Y+2964888D01*
D24*
X+6722920Y+4435380D02*
X+7241080Y+4435380D01*
X+7241080Y+4702080D01*
X+6722920Y+4702080D01*
X+6722920Y+4435380D01*
X+7159800Y+4437920D02*
X+7159800Y+4699540D01*
X+7312200Y+4570000D02*
X+7241080Y+4570000D01*
X+6722920Y+4570000D02*
X+6651800Y+4570000D01*
X+6855000Y+4303300D02*
X+6855000Y+4394740D01*
X+6918500Y+4394740D01*
X+6950250Y+4364260D01*
X+6950250Y+4333780D01*
X+6918500Y+4303300D01*
X+6855000Y+4303300D01*
X+6997875Y+4379500D02*
X+7013750Y+4394740D01*
X+7061375Y+4394740D01*
X+7077250Y+4379500D01*
X+7077250Y+4364260D01*
X+7061375Y+4349020D01*
X+7013750Y+4349020D01*
X+6997875Y+4333780D01*
X+6997875Y+4303300D01*
X+7077250Y+4303300D01*
X+886000Y+4368000D02*
X+886000Y+3352000D01*
X+2410000Y+4368000D02*
X+2410000Y+3352000D01*
X+886000Y+3352000D02*
X+2410000Y+3352000D01*
X+2410000Y+4368000D02*
X+886000Y+4368000D01*
X+1133500Y+4418640D02*
X+1133500Y+4510080D01*
X+1212875Y+4510080D01*
X+1228750Y+4494840D01*
X+1228750Y+4479600D01*
X+1212875Y+4464360D01*
X+1133500Y+4464360D01*
X+1260500Y+4479600D02*
X+1292250Y+4510080D01*
X+1324000Y+4510080D01*
X+1355750Y+4479600D01*
X+1355750Y+4449120D01*
X+1324000Y+4418640D01*
X+1292250Y+4418640D01*
X+1260500Y+4449120D01*
X+1260500Y+4479600D01*
X+1387500Y+4510080D02*
X+1482750Y+4510080D01*
X+1435125Y+4510080D02*
X+1435125Y+4418640D01*
X+1673250Y+4479600D02*
X+1705000Y+4510080D01*
X+1705000Y+4418640D01*
X+1768500Y+4433880D02*
X+1768500Y+4494840D01*
X+1784375Y+4510080D01*
X+1847875Y+4510080D01*
X+1863750Y+4494840D01*
X+1863750Y+4433880D01*
X+1847875Y+4418640D01*
X+1784375Y+4418640D01*
X+1768500Y+4433880D01*
X+1768500Y+4418640D02*
X+1863750Y+4510080D01*
X+1895500Y+4510080D02*
X+1895500Y+4418640D01*
X+1990750Y+4510080D02*
X+1943125Y+4464360D01*
X+1990750Y+4418640D01*
X+1895500Y+4464360D02*
X+1943125Y+4464360D01*
X+5177000Y+2450000D02*
X+5304000Y+2450000D01*
X+5304000Y+2386500D02*
X+5812000Y+2386500D01*
X+5812000Y+2513500D01*
X+5304000Y+2513500D01*
X+5304000Y+2386500D01*
X+5812000Y+2450000D02*
X+5939000Y+2450000D01*
X+5431000Y+2554140D02*
X+5431000Y+2645580D01*
X+5510375Y+2645580D01*
X+5526250Y+2630340D01*
X+5526250Y+2615100D01*
X+5510375Y+2599860D01*
X+5431000Y+2599860D01*
X+5510375Y+2599860D02*
X+5526250Y+2584620D01*
X+5526250Y+2554140D01*
X+5589750Y+2615100D02*
X+5621500Y+2645580D01*
X+5621500Y+2554140D01*
X+3153000Y+4680000D02*
X+3026000Y+4680000D01*
X+2518000Y+4616500D02*
X+3026000Y+4616500D01*
X+3026000Y+4743500D01*
X+2518000Y+4743500D01*
X+2518000Y+4616500D01*
X+2518000Y+4680000D02*
X+2391000Y+4680000D01*
X+2539750Y+4505380D02*
X+2571500Y+4535860D01*
X+2571500Y+4444420D01*
X+2730250Y+4535860D02*
X+2650875Y+4535860D01*
X+2650875Y+4505380D01*
X+2714375Y+4505380D01*
X+2730250Y+4490140D01*
X+2730250Y+4459660D01*
X+2714375Y+4444420D01*
X+2666750Y+4444420D01*
X+2650875Y+4459660D01*
X+2762000Y+4535860D02*
X+2762000Y+4444420D01*
X+2857250Y+4535860D02*
X+2809625Y+4490140D01*
X+2857250Y+4444420D01*
X+2762000Y+4490140D02*
X+2809625Y+4490140D01*
X+2936625Y+4459660D02*
X+2952500Y+4459660D01*
X+2952500Y+4444420D01*
X+2936625Y+4444420D01*
X+2936625Y+4459660D01*
X+5753000Y+1255000D02*
X+6007000Y+1255000D01*
X+6007000Y+2017000D01*
X+5753000Y+2017000D01*
X+5753000Y+1255000D01*
X+6007000Y+2017000D02*
X+6134000Y+2017000D01*
X+6134000Y+1255000D01*
X+6007000Y+1255000D01*
X+6007000Y+2017000D02*
X+6134000Y+1890000D01*
X+6007000Y+1890000D02*
X+6134000Y+1763000D01*
X+6007000Y+1763000D02*
X+6134000Y+1636000D01*
X+6007000Y+1636000D02*
X+6134000Y+1509000D01*
X+6007000Y+1509000D02*
X+6134000Y+1382000D01*
X+6007000Y+1382000D02*
X+6134000Y+1255000D01*
X+6174640Y+1509000D02*
X+6250840Y+1509000D01*
X+6266080Y+1524875D01*
X+6266080Y+1588375D01*
X+6250840Y+1604250D01*
X+6174640Y+1604250D01*
X+6205120Y+1667750D02*
X+6174640Y+1699500D01*
X+6266080Y+1699500D01*
D26*
X+6210000Y+760000D02*
X+6209185Y+780171D01*
X+6202566Y+820514D01*
X+6188753Y+860857D01*
X+6166307Y+901200D01*
X+6132010Y+941418D01*
X+6091667Y+972518D01*
X+6051324Y+992723D01*
X+6010981Y+1004747D01*
X+5970638Y+1009774D01*
X+5960000Y+1010000D01*
X+5710000Y+760000D02*
X+5710815Y+780171D01*
X+5717434Y+820514D01*
X+5731247Y+860857D01*
X+5753693Y+901200D01*
X+5787990Y+941418D01*
X+5828333Y+972518D01*
X+5868676Y+992723D01*
X+5909019Y+1004747D01*
X+5949362Y+1009774D01*
X+5960000Y+1010000D01*
X+5710000Y+760000D02*
X+5710815Y+739829D01*
X+5717434Y+699486D01*
X+5731247Y+659143D01*
X+5753693Y+618800D01*
X+5787990Y+578582D01*
X+5828333Y+547482D01*
X+5868676Y+527277D01*
X+5909019Y+515253D01*
X+5949362Y+510226D01*
X+5960000Y+510000D01*
X+6210000Y+760000D02*
X+6209185Y+739829D01*
X+6202566Y+699486D01*
X+6188753Y+659143D01*
X+6166307Y+618800D01*
X+6132010Y+578582D01*
X+6091667Y+547482D01*
X+6051324Y+527277D01*
X+6010981Y+515253D01*
X+5970638Y+510226D01*
X+5960000Y+510000D01*
D27*
X+6169000Y+561000D02*
X+6168965Y+561831D01*
X+6168684Y+563495D01*
X+6168094Y+565159D01*
X+6167130Y+566823D01*
X+6165655Y+568464D01*
X+6163991Y+569665D01*
X+6162327Y+570430D01*
X+6160663Y+570861D01*
X+6159000Y+571000D01*
X+6149000Y+561000D02*
X+6149035Y+561831D01*
X+6149316Y+563495D01*
X+6149906Y+565159D01*
X+6150870Y+566823D01*
X+6152345Y+568464D01*
X+6154009Y+569665D01*
X+6155673Y+570430D01*
X+6157337Y+570861D01*
X+6159000Y+571000D01*
X+6149000Y+561000D02*
X+6149035Y+560169D01*
X+6149316Y+558505D01*
X+6149906Y+556841D01*
X+6150870Y+555177D01*
X+6152345Y+553536D01*
X+6154009Y+552335D01*
X+6155673Y+551570D01*
X+6157337Y+551139D01*
X+6159000Y+551000D01*
X+6169000Y+561000D02*
X+6168965Y+560169D01*
X+6168684Y+558505D01*
X+6168094Y+556841D01*
X+6167130Y+555177D01*
X+6165655Y+553536D01*
X+6163991Y+552335D01*
X+6162327Y+551570D01*
X+6160663Y+551139D01*
X+6159000Y+551000D01*
D24*
X+5928250Y+397320D02*
X+5912375Y+382080D01*
X+5864750Y+382080D01*
X+5833000Y+412560D01*
X+5833000Y+443040D01*
X+5864750Y+473520D01*
X+5912375Y+473520D01*
X+5928250Y+458280D01*
X+5975875Y+458280D02*
X+5991750Y+473520D01*
X+6039375Y+473520D01*
X+6055250Y+458280D01*
X+6055250Y+443040D01*
X+6039375Y+427800D01*
X+6055250Y+412560D01*
X+6055250Y+397320D01*
X+6039375Y+382080D01*
X+5991750Y+382080D01*
X+5975875Y+397320D01*
X+6007625Y+427800D02*
X+6039375Y+427800D01*
M02*
