G04 PROTEUS GERBER X2 FILE*
%TF.GenerationSoftware,Labcenter,Proteus,8.13-SP0-Build31525*%
%TF.CreationDate,2024-10-28T14:47:28+00:00*%
%TF.FileFunction,Soldermask,Top*%
%TF.FilePolarity,Negative*%
%TF.Part,Single*%
%TF.SameCoordinates,{34124c4d-f2d1-4a7d-b498-645d5fdee650}*%
%FSLAX45Y45*%
%MOMM*%
G01*
%TA.AperFunction,Material*%
%ADD22C,3.302000*%
%ADD23C,2.032000*%
%ADD24C,2.540000*%
%AMPPAD017*
4,1,36,
1.143000,1.016000,
1.143000,-1.016000,
1.140470,-1.041970,
1.133200,-1.065980,
1.121650,-1.087580,
1.106290,-1.106290,
1.087570,-1.121650,
1.065980,-1.133200,
1.041970,-1.140470,
1.016000,-1.143000,
-1.016000,-1.143000,
-1.041970,-1.140470,
-1.065980,-1.133200,
-1.087570,-1.121650,
-1.106290,-1.106290,
-1.121650,-1.087580,
-1.133200,-1.065980,
-1.140470,-1.041970,
-1.143000,-1.016000,
-1.143000,1.016000,
-1.140470,1.041970,
-1.133200,1.065980,
-1.121650,1.087580,
-1.106290,1.106290,
-1.087570,1.121650,
-1.065980,1.133200,
-1.041970,1.140470,
-1.016000,1.143000,
1.016000,1.143000,
1.041970,1.140470,
1.065980,1.133200,
1.087570,1.121650,
1.106290,1.106290,
1.121650,1.087580,
1.133200,1.065980,
1.140470,1.041970,
1.143000,1.016000,
0*%
%TA.AperFunction,Material*%
%ADD25PPAD017*%
%AMPPAD018*
4,1,36,
1.016000,-1.143000,
-1.016000,-1.143000,
-1.041970,-1.140470,
-1.065980,-1.133200,
-1.087580,-1.121650,
-1.106290,-1.106290,
-1.121650,-1.087570,
-1.133200,-1.065980,
-1.140470,-1.041970,
-1.143000,-1.016000,
-1.143000,1.016000,
-1.140470,1.041970,
-1.133200,1.065980,
-1.121650,1.087570,
-1.106290,1.106290,
-1.087580,1.121650,
-1.065980,1.133200,
-1.041970,1.140470,
-1.016000,1.143000,
1.016000,1.143000,
1.041970,1.140470,
1.065980,1.133200,
1.087580,1.121650,
1.106290,1.106290,
1.121650,1.087570,
1.133200,1.065980,
1.140470,1.041970,
1.143000,1.016000,
1.143000,-1.016000,
1.140470,-1.041970,
1.133200,-1.065980,
1.121650,-1.087570,
1.106290,-1.106290,
1.087580,-1.121650,
1.065980,-1.133200,
1.041970,-1.140470,
1.016000,-1.143000,
0*%
%TA.AperFunction,Material*%
%ADD26PPAD018*%
%TA.AperFunction,Material*%
%ADD27C,1.778000*%
%TD.AperFunction*%
D22*
X+1250000Y+3700000D03*
X+742000Y+3700000D03*
X+1250000Y+1360000D03*
X+742000Y+1360000D03*
D23*
X+2610000Y+4230000D03*
X+2610000Y+3214000D03*
D24*
X+2960000Y+3234000D03*
X+2960000Y+4250000D03*
D25*
X+3730000Y+4270000D03*
X+3720000Y+3120000D03*
X+3540000Y+3690000D03*
X+4920000Y+4270000D03*
X+4920000Y+3130000D03*
D26*
X+6260000Y+4100000D03*
X+6006000Y+4100000D03*
X+6220000Y+2620000D03*
X+5966000Y+2620000D03*
D24*
X+6740000Y+1364000D03*
X+6740000Y+2380000D03*
D26*
X+6250000Y+1520000D03*
X+5996000Y+1520000D03*
D23*
X+5240000Y+2230000D03*
X+4224000Y+2230000D03*
X+2240000Y+3200000D03*
X+2240000Y+4216000D03*
X+1860000Y+4240000D03*
X+1860000Y+3224000D03*
D25*
X+4490000Y+550000D03*
X+4500000Y+1740000D03*
X+4710000Y+1170000D03*
X+3300000Y+590000D03*
X+3300000Y+1740000D03*
D22*
X+7640000Y+1500000D03*
X+7640000Y+992000D03*
D27*
X+2276800Y+2580000D03*
X+2480000Y+2580000D03*
X+2683200Y+2580000D03*
D22*
X+7670000Y+3880000D03*
X+7670000Y+3372000D03*
D24*
X+6730000Y+2874000D03*
X+6730000Y+3890000D03*
M02*
