G04 PROTEUS GERBER X2 FILE*
%TF.GenerationSoftware,Labcenter,Proteus,8.13-SP0-Build31525*%
%TF.CreationDate,2024-10-28T14:47:28+00:00*%
%TF.FileFunction,Legend,Top*%
%TF.FilePolarity,Positive*%
%TF.Part,Single*%
%TF.SameCoordinates,{34124c4d-f2d1-4a7d-b498-645d5fdee650}*%
%FSLAX45Y45*%
%MOMM*%
G01*
%TA.AperFunction,Material*%
%ADD20C,0.203200*%
%TA.AperFunction,NonMaterial*%
%ADD21C,0.203200*%
%TD.AperFunction*%
D20*
X+1504000Y+3192000D02*
X+1504000Y+4208000D01*
X+488000Y+3192000D02*
X+488000Y+4208000D01*
X+1504000Y+4208000D02*
X+488000Y+4208000D01*
X+1504000Y+3192000D02*
X+488000Y+3192000D01*
X+275750Y+2845160D02*
X+259875Y+2829920D01*
X+212250Y+2829920D01*
X+180500Y+2860400D01*
X+180500Y+2890880D01*
X+212250Y+2921360D01*
X+259875Y+2921360D01*
X+275750Y+2906120D01*
X+307500Y+2829920D02*
X+307500Y+2890880D01*
X+339250Y+2921360D01*
X+371000Y+2921360D01*
X+402750Y+2890880D01*
X+402750Y+2829920D01*
X+307500Y+2860400D02*
X+402750Y+2860400D01*
X+434500Y+2829920D02*
X+434500Y+2921360D01*
X+513875Y+2921360D01*
X+529750Y+2906120D01*
X+529750Y+2890880D01*
X+513875Y+2875640D01*
X+434500Y+2875640D01*
X+513875Y+2875640D02*
X+529750Y+2860400D01*
X+529750Y+2829920D01*
X+625000Y+2860400D02*
X+656750Y+2860400D01*
X+656750Y+2829920D01*
X+593250Y+2829920D01*
X+561500Y+2860400D01*
X+561500Y+2890880D01*
X+593250Y+2921360D01*
X+640875Y+2921360D01*
X+656750Y+2906120D01*
X+688500Y+2829920D02*
X+688500Y+2890880D01*
X+720250Y+2921360D01*
X+752000Y+2921360D01*
X+783750Y+2890880D01*
X+783750Y+2829920D01*
X+688500Y+2860400D02*
X+783750Y+2860400D01*
X+942500Y+2829920D02*
X+942500Y+2921360D01*
X+1021875Y+2921360D01*
X+1037750Y+2906120D01*
X+1037750Y+2890880D01*
X+1021875Y+2875640D01*
X+1037750Y+2860400D01*
X+1037750Y+2845160D01*
X+1021875Y+2829920D01*
X+942500Y+2829920D01*
X+942500Y+2875640D02*
X+1021875Y+2875640D01*
X+1069500Y+2829920D02*
X+1069500Y+2890880D01*
X+1101250Y+2921360D01*
X+1133000Y+2921360D01*
X+1164750Y+2890880D01*
X+1164750Y+2829920D01*
X+1069500Y+2860400D02*
X+1164750Y+2860400D01*
X+1196500Y+2921360D02*
X+1291750Y+2921360D01*
X+1244125Y+2921360D02*
X+1244125Y+2829920D01*
X+1418750Y+2829920D02*
X+1323500Y+2829920D01*
X+1323500Y+2921360D01*
X+1418750Y+2921360D01*
X+1323500Y+2875640D02*
X+1387000Y+2875640D01*
X+1450500Y+2829920D02*
X+1450500Y+2921360D01*
X+1529875Y+2921360D01*
X+1545750Y+2906120D01*
X+1545750Y+2890880D01*
X+1529875Y+2875640D01*
X+1450500Y+2875640D01*
X+1529875Y+2875640D02*
X+1545750Y+2860400D01*
X+1545750Y+2829920D01*
X+1593375Y+2921360D02*
X+1656875Y+2921360D01*
X+1625125Y+2921360D02*
X+1625125Y+2829920D01*
X+1593375Y+2829920D02*
X+1656875Y+2829920D01*
X+1704500Y+2829920D02*
X+1704500Y+2890880D01*
X+1736250Y+2921360D01*
X+1768000Y+2921360D01*
X+1799750Y+2890880D01*
X+1799750Y+2829920D01*
X+1704500Y+2860400D02*
X+1799750Y+2860400D01*
X+1504000Y+852000D02*
X+1504000Y+1868000D01*
X+488000Y+852000D02*
X+488000Y+1868000D01*
X+1504000Y+1868000D02*
X+488000Y+1868000D01*
X+1504000Y+852000D02*
X+488000Y+852000D01*
X+319250Y+1995160D02*
X+303375Y+1979920D01*
X+255750Y+1979920D01*
X+224000Y+2010400D01*
X+224000Y+2040880D01*
X+255750Y+2071360D01*
X+303375Y+2071360D01*
X+319250Y+2056120D01*
X+351000Y+1979920D02*
X+351000Y+2040880D01*
X+382750Y+2071360D01*
X+414500Y+2071360D01*
X+446250Y+2040880D01*
X+446250Y+1979920D01*
X+351000Y+2010400D02*
X+446250Y+2010400D01*
X+478000Y+1979920D02*
X+478000Y+2071360D01*
X+557375Y+2071360D01*
X+573250Y+2056120D01*
X+573250Y+2040880D01*
X+557375Y+2025640D01*
X+478000Y+2025640D01*
X+557375Y+2025640D02*
X+573250Y+2010400D01*
X+573250Y+1979920D01*
X+668500Y+2010400D02*
X+700250Y+2010400D01*
X+700250Y+1979920D01*
X+636750Y+1979920D01*
X+605000Y+2010400D01*
X+605000Y+2040880D01*
X+636750Y+2071360D01*
X+684375Y+2071360D01*
X+700250Y+2056120D01*
X+732000Y+1979920D02*
X+732000Y+2040880D01*
X+763750Y+2071360D01*
X+795500Y+2071360D01*
X+827250Y+2040880D01*
X+827250Y+1979920D01*
X+732000Y+2010400D02*
X+827250Y+2010400D01*
X+986000Y+1979920D02*
X+986000Y+2071360D01*
X+1065375Y+2071360D01*
X+1081250Y+2056120D01*
X+1081250Y+2040880D01*
X+1065375Y+2025640D01*
X+986000Y+2025640D01*
X+1065375Y+2025640D02*
X+1081250Y+2010400D01*
X+1081250Y+1979920D01*
X+1113000Y+2040880D02*
X+1144750Y+2071360D01*
X+1176500Y+2071360D01*
X+1208250Y+2040880D01*
X+1208250Y+2010400D01*
X+1176500Y+1979920D01*
X+1144750Y+1979920D01*
X+1113000Y+2010400D01*
X+1113000Y+2040880D01*
X+1240000Y+2071360D02*
X+1240000Y+1995160D01*
X+1255875Y+1979920D01*
X+1319375Y+1979920D01*
X+1335250Y+1995160D01*
X+1335250Y+2071360D01*
X+1367000Y+2071360D02*
X+1462250Y+2071360D01*
X+1414625Y+2071360D02*
X+1414625Y+1979920D01*
X+1589250Y+1979920D02*
X+1494000Y+1979920D01*
X+1494000Y+2071360D01*
X+1589250Y+2071360D01*
X+1494000Y+2025640D02*
X+1557500Y+2025640D01*
X+1621000Y+1979920D02*
X+1621000Y+2071360D01*
X+1700375Y+2071360D01*
X+1716250Y+2056120D01*
X+1716250Y+2040880D01*
X+1700375Y+2025640D01*
X+1621000Y+2025640D01*
X+1700375Y+2025640D02*
X+1716250Y+2010400D01*
X+1716250Y+1979920D01*
X+2610000Y+4103000D02*
X+2610000Y+3976000D01*
X+2546500Y+3468000D02*
X+2673500Y+3468000D01*
X+2673500Y+3976000D01*
X+2546500Y+3976000D01*
X+2546500Y+3468000D01*
X+2610000Y+3468000D02*
X+2610000Y+3341000D01*
X+2409380Y+3443875D02*
X+2394140Y+3459750D01*
X+2394140Y+3507375D01*
X+2409380Y+3523250D01*
X+2424620Y+3523250D01*
X+2439860Y+3507375D01*
X+2439860Y+3459750D01*
X+2455100Y+3443875D01*
X+2485580Y+3443875D01*
X+2485580Y+3523250D01*
X+2470340Y+3602625D02*
X+2470340Y+3618500D01*
X+2485580Y+3618500D01*
X+2485580Y+3602625D01*
X+2470340Y+3602625D01*
X+2409380Y+3697875D02*
X+2394140Y+3713750D01*
X+2394140Y+3761375D01*
X+2409380Y+3777250D01*
X+2424620Y+3777250D01*
X+2439860Y+3761375D01*
X+2439860Y+3713750D01*
X+2455100Y+3697875D01*
X+2485580Y+3697875D01*
X+2485580Y+3777250D01*
X+2394140Y+3809000D02*
X+2485580Y+3809000D01*
X+2394140Y+3904250D02*
X+2439860Y+3856625D01*
X+2485580Y+3904250D01*
X+2439860Y+3809000D02*
X+2439860Y+3856625D01*
X+2827920Y+3482920D02*
X+3094620Y+3482920D01*
X+3094620Y+4001080D01*
X+2827920Y+4001080D01*
X+2827920Y+3482920D01*
X+3092080Y+3919800D02*
X+2830460Y+3919800D01*
X+2960000Y+4072200D02*
X+2960000Y+4001080D01*
X+2960000Y+3482920D02*
X+2960000Y+3411800D01*
X+3216700Y+3535000D02*
X+3125260Y+3535000D01*
X+3125260Y+3598500D01*
X+3155740Y+3630250D01*
X+3186220Y+3630250D01*
X+3216700Y+3598500D01*
X+3216700Y+3535000D01*
X+3155740Y+3693750D02*
X+3125260Y+3725500D01*
X+3216700Y+3725500D01*
X+3603000Y+4143000D02*
X+3857000Y+4143000D01*
X+3857000Y+4397000D01*
X+3603000Y+4397000D01*
X+3603000Y+4143000D01*
X+3989080Y+4143000D02*
X+3897640Y+4143000D01*
X+3897640Y+4222375D01*
X+3912880Y+4238250D01*
X+3928120Y+4238250D01*
X+3943360Y+4222375D01*
X+3958600Y+4238250D01*
X+3973840Y+4238250D01*
X+3989080Y+4222375D01*
X+3989080Y+4143000D01*
X+3943360Y+4143000D02*
X+3943360Y+4222375D01*
X+3928120Y+4301750D02*
X+3897640Y+4333500D01*
X+3989080Y+4333500D01*
X+3593000Y+2993000D02*
X+3847000Y+2993000D01*
X+3847000Y+3247000D01*
X+3593000Y+3247000D01*
X+3593000Y+2993000D01*
X+3979080Y+2993000D02*
X+3887640Y+2993000D01*
X+3887640Y+3072375D01*
X+3902880Y+3088250D01*
X+3918120Y+3088250D01*
X+3933360Y+3072375D01*
X+3948600Y+3088250D01*
X+3963840Y+3088250D01*
X+3979080Y+3072375D01*
X+3979080Y+2993000D01*
X+3933360Y+2993000D02*
X+3933360Y+3072375D01*
X+3902880Y+3135875D02*
X+3887640Y+3151750D01*
X+3887640Y+3199375D01*
X+3902880Y+3215250D01*
X+3918120Y+3215250D01*
X+3933360Y+3199375D01*
X+3933360Y+3151750D01*
X+3948600Y+3135875D01*
X+3979080Y+3135875D01*
X+3979080Y+3215250D01*
X+3413000Y+3563000D02*
X+3667000Y+3563000D01*
X+3667000Y+3817000D01*
X+3413000Y+3817000D01*
X+3413000Y+3563000D01*
X+3783840Y+3594750D02*
X+3799080Y+3578875D01*
X+3799080Y+3531250D01*
X+3768600Y+3499500D01*
X+3738120Y+3499500D01*
X+3707640Y+3531250D01*
X+3707640Y+3578875D01*
X+3722880Y+3594750D01*
X+3738120Y+3626500D02*
X+3707640Y+3658250D01*
X+3707640Y+3690000D01*
X+3738120Y+3721750D01*
X+3768600Y+3721750D01*
X+3799080Y+3690000D01*
X+3799080Y+3658250D01*
X+3768600Y+3626500D01*
X+3738120Y+3626500D01*
X+3799080Y+3753500D02*
X+3707640Y+3753500D01*
X+3753360Y+3801125D01*
X+3707640Y+3848750D01*
X+3799080Y+3848750D01*
X+4793000Y+4143000D02*
X+5047000Y+4143000D01*
X+5047000Y+4397000D01*
X+4793000Y+4397000D01*
X+4793000Y+4143000D01*
X+5163840Y+4301750D02*
X+5179080Y+4285875D01*
X+5179080Y+4238250D01*
X+5148600Y+4206500D01*
X+5118120Y+4206500D01*
X+5087640Y+4238250D01*
X+5087640Y+4285875D01*
X+5102880Y+4301750D01*
X+4793000Y+3003000D02*
X+5047000Y+3003000D01*
X+5047000Y+3257000D01*
X+4793000Y+3257000D01*
X+4793000Y+3003000D01*
X+5179080Y+3066500D02*
X+5118120Y+3066500D01*
X+5087640Y+3098250D01*
X+5087640Y+3130000D01*
X+5118120Y+3161750D01*
X+5179080Y+3161750D01*
X+5148600Y+3066500D02*
X+5148600Y+3161750D01*
X+5879000Y+3973000D02*
X+6387000Y+3973000D01*
X+6387000Y+4227000D01*
X+5879000Y+4227000D01*
X+5879000Y+3973000D01*
X+5942500Y+3871400D02*
X+5942500Y+3856160D01*
X+5958375Y+3840920D01*
X+6021875Y+3840920D01*
X+6037750Y+3856160D01*
X+6037750Y+3932360D01*
X+6101250Y+3901880D02*
X+6133000Y+3932360D01*
X+6133000Y+3840920D01*
X+6196500Y+3856160D02*
X+6196500Y+3917120D01*
X+6212375Y+3932360D01*
X+6275875Y+3932360D01*
X+6291750Y+3917120D01*
X+6291750Y+3856160D01*
X+6275875Y+3840920D01*
X+6212375Y+3840920D01*
X+6196500Y+3856160D01*
X+6196500Y+3840920D02*
X+6291750Y+3932360D01*
X+5839000Y+2493000D02*
X+6347000Y+2493000D01*
X+6347000Y+2747000D01*
X+5839000Y+2747000D01*
X+5839000Y+2493000D01*
X+5966000Y+2391400D02*
X+5966000Y+2376160D01*
X+5981875Y+2360920D01*
X+6045375Y+2360920D01*
X+6061250Y+2376160D01*
X+6061250Y+2452360D01*
X+6188250Y+2391400D02*
X+6093000Y+2391400D01*
X+6156500Y+2452360D01*
X+6156500Y+2360920D01*
X+6607920Y+1612920D02*
X+6874620Y+1612920D01*
X+6874620Y+2131080D01*
X+6607920Y+2131080D01*
X+6607920Y+1612920D01*
X+6872080Y+2049800D02*
X+6610460Y+2049800D01*
X+6740000Y+2202200D02*
X+6740000Y+2131080D01*
X+6740000Y+1612920D02*
X+6740000Y+1541800D01*
X+7026700Y+1705000D02*
X+6935260Y+1705000D01*
X+6935260Y+1768500D01*
X+6965740Y+1800250D01*
X+6996220Y+1800250D01*
X+7026700Y+1768500D01*
X+7026700Y+1705000D01*
X+6950500Y+1847875D02*
X+6935260Y+1863750D01*
X+6935260Y+1911375D01*
X+6950500Y+1927250D01*
X+6965740Y+1927250D01*
X+6980980Y+1911375D01*
X+6996220Y+1927250D01*
X+7011460Y+1927250D01*
X+7026700Y+1911375D01*
X+7026700Y+1863750D01*
X+7011460Y+1847875D01*
X+6980980Y+1879625D02*
X+6980980Y+1911375D01*
X+5869000Y+1393000D02*
X+6377000Y+1393000D01*
X+6377000Y+1647000D01*
X+5869000Y+1647000D01*
X+5869000Y+1393000D01*
X+5996000Y+1291400D02*
X+5996000Y+1276160D01*
X+6011875Y+1260920D01*
X+6075375Y+1260920D01*
X+6091250Y+1276160D01*
X+6091250Y+1352360D01*
X+6218250Y+1321880D02*
X+6202375Y+1306640D01*
X+6154750Y+1306640D01*
X+6138875Y+1321880D01*
X+6138875Y+1337120D01*
X+6154750Y+1352360D01*
X+6202375Y+1352360D01*
X+6218250Y+1337120D01*
X+6218250Y+1276160D01*
X+6202375Y+1260920D01*
X+6154750Y+1260920D01*
X+5113000Y+2230000D02*
X+4986000Y+2230000D01*
X+4478000Y+2166500D02*
X+4986000Y+2166500D01*
X+4986000Y+2293500D01*
X+4478000Y+2293500D01*
X+4478000Y+2166500D01*
X+4478000Y+2230000D02*
X+4351000Y+2230000D01*
X+4557375Y+2110620D02*
X+4573250Y+2125860D01*
X+4620875Y+2125860D01*
X+4636750Y+2110620D01*
X+4636750Y+2095380D01*
X+4620875Y+2080140D01*
X+4573250Y+2080140D01*
X+4557375Y+2064900D01*
X+4557375Y+2034420D01*
X+4636750Y+2034420D01*
X+4684375Y+2125860D02*
X+4763750Y+2125860D01*
X+4763750Y+2110620D01*
X+4684375Y+2034420D01*
X+4795500Y+2049660D02*
X+4795500Y+2110620D01*
X+4811375Y+2125860D01*
X+4874875Y+2125860D01*
X+4890750Y+2110620D01*
X+4890750Y+2049660D01*
X+4874875Y+2034420D01*
X+4811375Y+2034420D01*
X+4795500Y+2049660D01*
X+4795500Y+2034420D02*
X+4890750Y+2125860D01*
X+2240000Y+3327000D02*
X+2240000Y+3454000D01*
X+2176500Y+3454000D02*
X+2303500Y+3454000D01*
X+2303500Y+3962000D01*
X+2176500Y+3962000D01*
X+2176500Y+3454000D01*
X+2240000Y+3962000D02*
X+2240000Y+4089000D01*
X+2074900Y+3485750D02*
X+2044420Y+3517500D01*
X+2135860Y+3517500D01*
X+2120620Y+3581000D02*
X+2059660Y+3581000D01*
X+2044420Y+3596875D01*
X+2044420Y+3660375D01*
X+2059660Y+3676250D01*
X+2120620Y+3676250D01*
X+2135860Y+3660375D01*
X+2135860Y+3596875D01*
X+2120620Y+3581000D01*
X+2135860Y+3581000D02*
X+2044420Y+3676250D01*
X+2044420Y+3708000D02*
X+2135860Y+3708000D01*
X+2044420Y+3803250D02*
X+2090140Y+3755625D01*
X+2135860Y+3803250D01*
X+2090140Y+3708000D02*
X+2090140Y+3755625D01*
X+2120620Y+3882625D02*
X+2120620Y+3898500D01*
X+2135860Y+3898500D01*
X+2135860Y+3882625D01*
X+2120620Y+3882625D01*
X+1860000Y+4113000D02*
X+1860000Y+3986000D01*
X+1796500Y+3478000D02*
X+1923500Y+3478000D01*
X+1923500Y+3986000D01*
X+1796500Y+3986000D01*
X+1796500Y+3478000D01*
X+1860000Y+3478000D02*
X+1860000Y+3351000D01*
X+1649380Y+3513250D02*
X+1634140Y+3497375D01*
X+1634140Y+3449750D01*
X+1649380Y+3433875D01*
X+1710340Y+3433875D01*
X+1725580Y+3449750D01*
X+1725580Y+3497375D01*
X+1710340Y+3513250D01*
X+1695100Y+3513250D01*
X+1679860Y+3497375D01*
X+1679860Y+3433875D01*
X+1679860Y+3576750D02*
X+1664620Y+3560875D01*
X+1649380Y+3560875D01*
X+1634140Y+3576750D01*
X+1634140Y+3624375D01*
X+1649380Y+3640250D01*
X+1664620Y+3640250D01*
X+1679860Y+3624375D01*
X+1679860Y+3576750D01*
X+1695100Y+3560875D01*
X+1710340Y+3560875D01*
X+1725580Y+3576750D01*
X+1725580Y+3624375D01*
X+1710340Y+3640250D01*
X+1695100Y+3640250D01*
X+1679860Y+3624375D01*
X+1710340Y+3672000D02*
X+1649380Y+3672000D01*
X+1634140Y+3687875D01*
X+1634140Y+3751375D01*
X+1649380Y+3767250D01*
X+1710340Y+3767250D01*
X+1725580Y+3751375D01*
X+1725580Y+3687875D01*
X+1710340Y+3672000D01*
X+1725580Y+3672000D02*
X+1634140Y+3767250D01*
X+1710340Y+3846625D02*
X+1710340Y+3862500D01*
X+1725580Y+3862500D01*
X+1725580Y+3846625D01*
X+1710340Y+3846625D01*
X+4363000Y+423000D02*
X+4617000Y+423000D01*
X+4617000Y+677000D01*
X+4363000Y+677000D01*
X+4363000Y+423000D01*
X+4749080Y+423000D02*
X+4657640Y+423000D01*
X+4657640Y+502375D01*
X+4672880Y+518250D01*
X+4688120Y+518250D01*
X+4703360Y+502375D01*
X+4718600Y+518250D01*
X+4733840Y+518250D01*
X+4749080Y+502375D01*
X+4749080Y+423000D01*
X+4703360Y+423000D02*
X+4703360Y+502375D01*
X+4672880Y+565875D02*
X+4657640Y+581750D01*
X+4657640Y+629375D01*
X+4672880Y+645250D01*
X+4688120Y+645250D01*
X+4703360Y+629375D01*
X+4718600Y+645250D01*
X+4733840Y+645250D01*
X+4749080Y+629375D01*
X+4749080Y+581750D01*
X+4733840Y+565875D01*
X+4703360Y+597625D02*
X+4703360Y+629375D01*
X+4373000Y+1613000D02*
X+4627000Y+1613000D01*
X+4627000Y+1867000D01*
X+4373000Y+1867000D01*
X+4373000Y+1613000D01*
X+4759080Y+1613000D02*
X+4667640Y+1613000D01*
X+4667640Y+1692375D01*
X+4682880Y+1708250D01*
X+4698120Y+1708250D01*
X+4713360Y+1692375D01*
X+4728600Y+1708250D01*
X+4743840Y+1708250D01*
X+4759080Y+1692375D01*
X+4759080Y+1613000D01*
X+4713360Y+1613000D02*
X+4713360Y+1692375D01*
X+4728600Y+1835250D02*
X+4728600Y+1740000D01*
X+4667640Y+1803500D01*
X+4759080Y+1803500D01*
X+4583000Y+1043000D02*
X+4837000Y+1043000D01*
X+4837000Y+1297000D01*
X+4583000Y+1297000D01*
X+4583000Y+1043000D01*
X+4953840Y+1011250D02*
X+4969080Y+995375D01*
X+4969080Y+947750D01*
X+4938600Y+916000D01*
X+4908120Y+916000D01*
X+4877640Y+947750D01*
X+4877640Y+995375D01*
X+4892880Y+1011250D01*
X+4908120Y+1043000D02*
X+4877640Y+1074750D01*
X+4877640Y+1106500D01*
X+4908120Y+1138250D01*
X+4938600Y+1138250D01*
X+4969080Y+1106500D01*
X+4969080Y+1074750D01*
X+4938600Y+1043000D01*
X+4908120Y+1043000D01*
X+4969080Y+1170000D02*
X+4877640Y+1170000D01*
X+4923360Y+1217625D01*
X+4877640Y+1265250D01*
X+4969080Y+1265250D01*
X+4908120Y+1328750D02*
X+4877640Y+1360500D01*
X+4969080Y+1360500D01*
X+3173000Y+463000D02*
X+3427000Y+463000D01*
X+3427000Y+717000D01*
X+3173000Y+717000D01*
X+3173000Y+463000D01*
X+3543840Y+558250D02*
X+3559080Y+542375D01*
X+3559080Y+494750D01*
X+3528600Y+463000D01*
X+3498120Y+463000D01*
X+3467640Y+494750D01*
X+3467640Y+542375D01*
X+3482880Y+558250D01*
X+3498120Y+621750D02*
X+3467640Y+653500D01*
X+3559080Y+653500D01*
X+3173000Y+1613000D02*
X+3427000Y+1613000D01*
X+3427000Y+1867000D01*
X+3173000Y+1867000D01*
X+3173000Y+1613000D01*
X+3559080Y+1613000D02*
X+3498120Y+1613000D01*
X+3467640Y+1644750D01*
X+3467640Y+1676500D01*
X+3498120Y+1708250D01*
X+3559080Y+1708250D01*
X+3528600Y+1613000D02*
X+3528600Y+1708250D01*
X+3498120Y+1771750D02*
X+3467640Y+1803500D01*
X+3559080Y+1803500D01*
X+8148000Y+1754000D02*
X+7132000Y+1754000D01*
X+8148000Y+738000D02*
X+7132000Y+738000D01*
X+7132000Y+1754000D02*
X+7132000Y+738000D01*
X+8148000Y+1754000D02*
X+8148000Y+738000D01*
X+8264840Y+865000D02*
X+8280080Y+880875D01*
X+8280080Y+944375D01*
X+8264840Y+960250D01*
X+8249600Y+960250D01*
X+8234360Y+944375D01*
X+8234360Y+880875D01*
X+8219120Y+865000D01*
X+8203880Y+865000D01*
X+8188640Y+880875D01*
X+8188640Y+944375D01*
X+8203880Y+960250D01*
X+8280080Y+992000D02*
X+8219120Y+992000D01*
X+8188640Y+1023750D01*
X+8188640Y+1055500D01*
X+8219120Y+1087250D01*
X+8280080Y+1087250D01*
X+8249600Y+992000D02*
X+8249600Y+1087250D01*
X+8188640Y+1119000D02*
X+8280080Y+1119000D01*
X+8280080Y+1214250D01*
X+8188640Y+1261875D02*
X+8188640Y+1325375D01*
X+8188640Y+1293625D02*
X+8280080Y+1293625D01*
X+8280080Y+1261875D02*
X+8280080Y+1325375D01*
X+8280080Y+1373000D02*
X+8188640Y+1373000D01*
X+8188640Y+1436500D01*
X+8219120Y+1468250D01*
X+8249600Y+1468250D01*
X+8280080Y+1436500D01*
X+8280080Y+1373000D01*
X+8280080Y+1500000D02*
X+8219120Y+1500000D01*
X+8188640Y+1531750D01*
X+8188640Y+1563500D01*
X+8219120Y+1595250D01*
X+8280080Y+1595250D01*
X+8249600Y+1500000D02*
X+8249600Y+1595250D01*
X+2226000Y+2414900D02*
X+2734000Y+2414900D01*
X+2149800Y+2580000D02*
X+2154562Y+2541702D01*
X+2168850Y+2502212D01*
X+2192662Y+2460342D01*
X+2226000Y+2414900D01*
X+2149800Y+2580000D02*
X+2152431Y+2644918D01*
X+2168912Y+2704953D01*
X+2197839Y+2758942D01*
X+2237807Y+2805722D01*
X+2287412Y+2844131D01*
X+2345249Y+2873005D01*
X+2409913Y+2891183D01*
X+2480000Y+2897500D01*
X+2810200Y+2580000D02*
X+2805438Y+2541702D01*
X+2791150Y+2502212D01*
X+2767338Y+2460342D01*
X+2734000Y+2414900D01*
X+2810200Y+2580000D02*
X+2807569Y+2644918D01*
X+2791088Y+2704953D01*
X+2762161Y+2758942D01*
X+2722193Y+2805722D01*
X+2672588Y+2844131D01*
X+2614751Y+2873005D01*
X+2550087Y+2891183D01*
X+2480000Y+2897500D01*
X+2353000Y+2999100D02*
X+2384750Y+3029580D01*
X+2416500Y+3029580D01*
X+2448250Y+2999100D01*
X+2448250Y+2968620D01*
X+2416500Y+2938140D01*
X+2384750Y+2938140D01*
X+2353000Y+2968620D01*
X+2353000Y+2999100D01*
X+2416500Y+2968620D02*
X+2448250Y+2938140D01*
X+2511750Y+2999100D02*
X+2543500Y+3029580D01*
X+2543500Y+2938140D01*
X+8178000Y+4134000D02*
X+7162000Y+4134000D01*
X+8178000Y+3118000D02*
X+7162000Y+3118000D01*
X+7162000Y+4134000D02*
X+7162000Y+3118000D01*
X+8178000Y+4134000D02*
X+8178000Y+3118000D01*
X+8310080Y+3181500D02*
X+8218640Y+3181500D01*
X+8218640Y+3260875D01*
X+8233880Y+3276750D01*
X+8249120Y+3276750D01*
X+8264360Y+3260875D01*
X+8279600Y+3276750D01*
X+8294840Y+3276750D01*
X+8310080Y+3260875D01*
X+8310080Y+3181500D01*
X+8264360Y+3181500D02*
X+8264360Y+3260875D01*
X+8310080Y+3308500D02*
X+8249120Y+3308500D01*
X+8218640Y+3340250D01*
X+8218640Y+3372000D01*
X+8249120Y+3403750D01*
X+8310080Y+3403750D01*
X+8279600Y+3308500D02*
X+8279600Y+3403750D01*
X+8218640Y+3435500D02*
X+8218640Y+3530750D01*
X+8218640Y+3483125D02*
X+8310080Y+3483125D01*
X+8310080Y+3657750D02*
X+8310080Y+3562500D01*
X+8218640Y+3562500D01*
X+8218640Y+3657750D01*
X+8264360Y+3562500D02*
X+8264360Y+3626000D01*
X+8310080Y+3689500D02*
X+8218640Y+3689500D01*
X+8218640Y+3768875D01*
X+8233880Y+3784750D01*
X+8249120Y+3784750D01*
X+8264360Y+3768875D01*
X+8264360Y+3689500D01*
X+8264360Y+3768875D02*
X+8279600Y+3784750D01*
X+8310080Y+3784750D01*
X+8218640Y+3832375D02*
X+8218640Y+3895875D01*
X+8218640Y+3864125D02*
X+8310080Y+3864125D01*
X+8310080Y+3832375D02*
X+8310080Y+3895875D01*
X+8310080Y+3943500D02*
X+8249120Y+3943500D01*
X+8218640Y+3975250D01*
X+8218640Y+4007000D01*
X+8249120Y+4038750D01*
X+8310080Y+4038750D01*
X+8279600Y+3943500D02*
X+8279600Y+4038750D01*
D21*
X+4500000Y+560000D02*
X+3300000Y+560000D01*
X+4500000Y+560000D02*
X+4373000Y+687000D01*
X+4500000Y+560000D02*
X+4373000Y+433000D01*
X+3300000Y+560000D02*
X+3427000Y+433000D01*
X+3300000Y+560000D02*
X+3427000Y+687000D01*
X+3931750Y+560000D02*
X+3931641Y+562634D01*
X+3930751Y+567903D01*
X+3928889Y+573172D01*
X+3925846Y+578441D01*
X+3921191Y+583643D01*
X+3915922Y+587469D01*
X+3910653Y+589909D01*
X+3905384Y+591290D01*
X+3900115Y+591750D01*
X+3900000Y+591750D01*
X+3868250Y+560000D02*
X+3868359Y+562634D01*
X+3869249Y+567903D01*
X+3871111Y+573172D01*
X+3874154Y+578441D01*
X+3878809Y+583643D01*
X+3884078Y+587469D01*
X+3889347Y+589909D01*
X+3894616Y+591290D01*
X+3899885Y+591750D01*
X+3900000Y+591750D01*
X+3868250Y+560000D02*
X+3868359Y+557366D01*
X+3869249Y+552097D01*
X+3871111Y+546828D01*
X+3874154Y+541559D01*
X+3878809Y+536357D01*
X+3884078Y+532531D01*
X+3889347Y+530091D01*
X+3894616Y+528710D01*
X+3899885Y+528250D01*
X+3900000Y+528250D01*
X+3931750Y+560000D02*
X+3931641Y+557366D01*
X+3930751Y+552097D01*
X+3928889Y+546828D01*
X+3925846Y+541559D01*
X+3921191Y+536357D01*
X+3915922Y+532531D01*
X+3910653Y+530091D01*
X+3905384Y+528710D01*
X+3900115Y+528250D01*
X+3900000Y+528250D01*
X+3677750Y+661600D02*
X+3709500Y+692080D01*
X+3709500Y+600640D01*
X+3788875Y+676840D02*
X+3804750Y+692080D01*
X+3852375Y+692080D01*
X+3868250Y+676840D01*
X+3868250Y+661600D01*
X+3852375Y+646360D01*
X+3804750Y+646360D01*
X+3788875Y+631120D01*
X+3788875Y+600640D01*
X+3868250Y+600640D01*
X+3900000Y+600640D02*
X+3900000Y+661600D01*
X+3900000Y+646360D02*
X+3915875Y+661600D01*
X+3947625Y+631120D01*
X+3979375Y+661600D01*
X+3995250Y+646360D01*
X+3995250Y+600640D01*
X+4027000Y+600640D02*
X+4027000Y+661600D01*
X+4027000Y+646360D02*
X+4042875Y+661600D01*
X+4074625Y+631120D01*
X+4106375Y+661600D01*
X+4122250Y+646360D01*
X+4122250Y+600640D01*
X+3300000Y+560000D02*
X+3300000Y+1760000D01*
X+3300000Y+560000D02*
X+3427000Y+687000D01*
X+3300000Y+560000D02*
X+3173000Y+687000D01*
X+3300000Y+1760000D02*
X+3173000Y+1633000D01*
X+3300000Y+1760000D02*
X+3427000Y+1633000D01*
X+3331750Y+1160000D02*
X+3331641Y+1162634D01*
X+3330751Y+1167903D01*
X+3328889Y+1173172D01*
X+3325846Y+1178441D01*
X+3321191Y+1183643D01*
X+3315922Y+1187469D01*
X+3310653Y+1189909D01*
X+3305384Y+1191290D01*
X+3300115Y+1191750D01*
X+3300000Y+1191750D01*
X+3268250Y+1160000D02*
X+3268359Y+1162634D01*
X+3269249Y+1167903D01*
X+3271111Y+1173172D01*
X+3274154Y+1178441D01*
X+3278809Y+1183643D01*
X+3284078Y+1187469D01*
X+3289347Y+1189909D01*
X+3294616Y+1191290D01*
X+3299885Y+1191750D01*
X+3300000Y+1191750D01*
X+3268250Y+1160000D02*
X+3268359Y+1157366D01*
X+3269249Y+1152097D01*
X+3271111Y+1146828D01*
X+3274154Y+1141559D01*
X+3278809Y+1136357D01*
X+3284078Y+1132531D01*
X+3289347Y+1130091D01*
X+3294616Y+1128710D01*
X+3299885Y+1128250D01*
X+3300000Y+1128250D01*
X+3331750Y+1160000D02*
X+3331641Y+1157366D01*
X+3330751Y+1152097D01*
X+3328889Y+1146828D01*
X+3325846Y+1141559D01*
X+3321191Y+1136357D01*
X+3315922Y+1132531D01*
X+3310653Y+1130091D01*
X+3305384Y+1128710D01*
X+3300115Y+1128250D01*
X+3300000Y+1128250D01*
X+3198400Y+937750D02*
X+3167920Y+969500D01*
X+3259360Y+969500D01*
X+3183160Y+1048875D02*
X+3167920Y+1064750D01*
X+3167920Y+1112375D01*
X+3183160Y+1128250D01*
X+3198400Y+1128250D01*
X+3213640Y+1112375D01*
X+3213640Y+1064750D01*
X+3228880Y+1048875D01*
X+3259360Y+1048875D01*
X+3259360Y+1128250D01*
X+3259360Y+1160000D02*
X+3198400Y+1160000D01*
X+3213640Y+1160000D02*
X+3198400Y+1175875D01*
X+3228880Y+1207625D01*
X+3198400Y+1239375D01*
X+3213640Y+1255250D01*
X+3259360Y+1255250D01*
X+3259360Y+1287000D02*
X+3198400Y+1287000D01*
X+3213640Y+1287000D02*
X+3198400Y+1302875D01*
X+3228880Y+1334625D01*
X+3198400Y+1366375D01*
X+3213640Y+1382250D01*
X+3259360Y+1382250D01*
X+4500000Y+560000D02*
X+4500000Y+1760000D01*
X+4500000Y+560000D02*
X+4627000Y+687000D01*
X+4500000Y+560000D02*
X+4373000Y+687000D01*
X+4500000Y+1760000D02*
X+4373000Y+1633000D01*
X+4500000Y+1760000D02*
X+4627000Y+1633000D01*
X+4531750Y+1160000D02*
X+4531641Y+1162634D01*
X+4530751Y+1167903D01*
X+4528889Y+1173172D01*
X+4525846Y+1178441D01*
X+4521191Y+1183643D01*
X+4515922Y+1187469D01*
X+4510653Y+1189909D01*
X+4505384Y+1191290D01*
X+4500115Y+1191750D01*
X+4500000Y+1191750D01*
X+4468250Y+1160000D02*
X+4468359Y+1162634D01*
X+4469249Y+1167903D01*
X+4471111Y+1173172D01*
X+4474154Y+1178441D01*
X+4478809Y+1183643D01*
X+4484078Y+1187469D01*
X+4489347Y+1189909D01*
X+4494616Y+1191290D01*
X+4499885Y+1191750D01*
X+4500000Y+1191750D01*
X+4468250Y+1160000D02*
X+4468359Y+1157366D01*
X+4469249Y+1152097D01*
X+4471111Y+1146828D01*
X+4474154Y+1141559D01*
X+4478809Y+1136357D01*
X+4484078Y+1132531D01*
X+4489347Y+1130091D01*
X+4494616Y+1128710D01*
X+4499885Y+1128250D01*
X+4500000Y+1128250D01*
X+4531750Y+1160000D02*
X+4531641Y+1157366D01*
X+4530751Y+1152097D01*
X+4528889Y+1146828D01*
X+4525846Y+1141559D01*
X+4521191Y+1136357D01*
X+4515922Y+1132531D01*
X+4510653Y+1130091D01*
X+4505384Y+1128710D01*
X+4500115Y+1128250D01*
X+4500000Y+1128250D01*
X+4398400Y+937750D02*
X+4367920Y+969500D01*
X+4459360Y+969500D01*
X+4383160Y+1048875D02*
X+4367920Y+1064750D01*
X+4367920Y+1112375D01*
X+4383160Y+1128250D01*
X+4398400Y+1128250D01*
X+4413640Y+1112375D01*
X+4413640Y+1064750D01*
X+4428880Y+1048875D01*
X+4459360Y+1048875D01*
X+4459360Y+1128250D01*
X+4459360Y+1160000D02*
X+4398400Y+1160000D01*
X+4413640Y+1160000D02*
X+4398400Y+1175875D01*
X+4428880Y+1207625D01*
X+4398400Y+1239375D01*
X+4413640Y+1255250D01*
X+4459360Y+1255250D01*
X+4459360Y+1287000D02*
X+4398400Y+1287000D01*
X+4413640Y+1287000D02*
X+4398400Y+1302875D01*
X+4428880Y+1334625D01*
X+4398400Y+1366375D01*
X+4413640Y+1382250D01*
X+4459360Y+1382250D01*
X+3720000Y+4270000D02*
X+4920000Y+4270000D01*
X+3720000Y+4270000D02*
X+3847000Y+4143000D01*
X+3720000Y+4270000D02*
X+3847000Y+4397000D01*
X+4920000Y+4270000D02*
X+4793000Y+4397000D01*
X+4920000Y+4270000D02*
X+4793000Y+4143000D01*
X+4351750Y+4270000D02*
X+4351641Y+4272634D01*
X+4350751Y+4277903D01*
X+4348889Y+4283172D01*
X+4345846Y+4288441D01*
X+4341191Y+4293643D01*
X+4335922Y+4297469D01*
X+4330653Y+4299909D01*
X+4325384Y+4301290D01*
X+4320115Y+4301750D01*
X+4320000Y+4301750D01*
X+4288250Y+4270000D02*
X+4288359Y+4272634D01*
X+4289249Y+4277903D01*
X+4291111Y+4283172D01*
X+4294154Y+4288441D01*
X+4298809Y+4293643D01*
X+4304078Y+4297469D01*
X+4309347Y+4299909D01*
X+4314616Y+4301290D01*
X+4319885Y+4301750D01*
X+4320000Y+4301750D01*
X+4288250Y+4270000D02*
X+4288359Y+4267366D01*
X+4289249Y+4262097D01*
X+4291111Y+4256828D01*
X+4294154Y+4251559D01*
X+4298809Y+4246357D01*
X+4304078Y+4242531D01*
X+4309347Y+4240091D01*
X+4314616Y+4238710D01*
X+4319885Y+4238250D01*
X+4320000Y+4238250D01*
X+4351750Y+4270000D02*
X+4351641Y+4267366D01*
X+4350751Y+4262097D01*
X+4348889Y+4256828D01*
X+4345846Y+4251559D01*
X+4341191Y+4246357D01*
X+4335922Y+4242531D01*
X+4330653Y+4240091D01*
X+4325384Y+4238710D01*
X+4320115Y+4238250D01*
X+4320000Y+4238250D01*
X+4097750Y+4371600D02*
X+4129500Y+4402080D01*
X+4129500Y+4310640D01*
X+4208875Y+4386840D02*
X+4224750Y+4402080D01*
X+4272375Y+4402080D01*
X+4288250Y+4386840D01*
X+4288250Y+4371600D01*
X+4272375Y+4356360D01*
X+4224750Y+4356360D01*
X+4208875Y+4341120D01*
X+4208875Y+4310640D01*
X+4288250Y+4310640D01*
X+4320000Y+4310640D02*
X+4320000Y+4371600D01*
X+4320000Y+4356360D02*
X+4335875Y+4371600D01*
X+4367625Y+4341120D01*
X+4399375Y+4371600D01*
X+4415250Y+4356360D01*
X+4415250Y+4310640D01*
X+4447000Y+4310640D02*
X+4447000Y+4371600D01*
X+4447000Y+4356360D02*
X+4462875Y+4371600D01*
X+4494625Y+4341120D01*
X+4526375Y+4371600D01*
X+4542250Y+4356360D01*
X+4542250Y+4310640D01*
D20*
X+3280000Y+2830000D02*
X+5290000Y+2830000D01*
X+5290000Y+4530000D01*
X+3280000Y+4530000D01*
X+3280000Y+2830000D01*
X+2990000Y+310000D02*
X+5000000Y+310000D01*
X+5000000Y+2010000D01*
X+2990000Y+2010000D01*
X+2990000Y+310000D01*
D21*
X+20000Y+5140000D02*
X+8720000Y+5140000D01*
X+20000Y+5140000D02*
X+147000Y+5013000D01*
X+20000Y+5140000D02*
X+147000Y+5267000D01*
X+8720000Y+5140000D02*
X+8593000Y+5267000D01*
X+8720000Y+5140000D02*
X+8593000Y+5013000D01*
X+4401750Y+5140000D02*
X+4401641Y+5142634D01*
X+4400751Y+5147903D01*
X+4398889Y+5153172D01*
X+4395846Y+5158441D01*
X+4391191Y+5163643D01*
X+4385922Y+5167469D01*
X+4380653Y+5169909D01*
X+4375384Y+5171290D01*
X+4370115Y+5171750D01*
X+4370000Y+5171750D01*
X+4338250Y+5140000D02*
X+4338359Y+5142634D01*
X+4339249Y+5147903D01*
X+4341111Y+5153172D01*
X+4344154Y+5158441D01*
X+4348809Y+5163643D01*
X+4354078Y+5167469D01*
X+4359347Y+5169909D01*
X+4364616Y+5171290D01*
X+4369885Y+5171750D01*
X+4370000Y+5171750D01*
X+4338250Y+5140000D02*
X+4338359Y+5137366D01*
X+4339249Y+5132097D01*
X+4341111Y+5126828D01*
X+4344154Y+5121559D01*
X+4348809Y+5116357D01*
X+4354078Y+5112531D01*
X+4359347Y+5110091D01*
X+4364616Y+5108710D01*
X+4369885Y+5108250D01*
X+4370000Y+5108250D01*
X+4401750Y+5140000D02*
X+4401641Y+5137366D01*
X+4400751Y+5132097D01*
X+4398889Y+5126828D01*
X+4395846Y+5121559D01*
X+4391191Y+5116357D01*
X+4385922Y+5112531D01*
X+4380653Y+5110091D01*
X+4375384Y+5108710D01*
X+4370115Y+5108250D01*
X+4370000Y+5108250D01*
X+4147750Y+5226360D02*
X+4131875Y+5241600D01*
X+4131875Y+5256840D01*
X+4147750Y+5272080D01*
X+4195375Y+5272080D01*
X+4211250Y+5256840D01*
X+4211250Y+5241600D01*
X+4195375Y+5226360D01*
X+4147750Y+5226360D01*
X+4131875Y+5211120D01*
X+4131875Y+5195880D01*
X+4147750Y+5180640D01*
X+4195375Y+5180640D01*
X+4211250Y+5195880D01*
X+4211250Y+5211120D01*
X+4195375Y+5226360D01*
X+4258875Y+5272080D02*
X+4338250Y+5272080D01*
X+4338250Y+5256840D01*
X+4258875Y+5180640D01*
X+4370000Y+5180640D02*
X+4370000Y+5241600D01*
X+4370000Y+5226360D02*
X+4385875Y+5241600D01*
X+4417625Y+5211120D01*
X+4449375Y+5241600D01*
X+4465250Y+5226360D01*
X+4465250Y+5180640D01*
X+4497000Y+5180640D02*
X+4497000Y+5241600D01*
X+4497000Y+5226360D02*
X+4512875Y+5241600D01*
X+4544625Y+5211120D01*
X+4576375Y+5241600D01*
X+4592250Y+5226360D01*
X+4592250Y+5180640D01*
X+9040000Y+4900000D02*
X+9030000Y-90000D01*
X+9040000Y+4900000D02*
X+8912745Y+4773254D01*
X+9040000Y+4900000D02*
X+9166745Y+4772745D01*
X+9030000Y-90000D02*
X+9157254Y+36745D01*
X+9030000Y-90000D02*
X+8903254Y+37254D01*
X+9066750Y+2405000D02*
X+9066641Y+2407634D01*
X+9065751Y+2412903D01*
X+9063889Y+2418172D01*
X+9060846Y+2423441D01*
X+9056191Y+2428643D01*
X+9050922Y+2432469D01*
X+9045653Y+2434909D01*
X+9040384Y+2436290D01*
X+9035115Y+2436750D01*
X+9035000Y+2436750D01*
X+9003250Y+2405000D02*
X+9003359Y+2407634D01*
X+9004249Y+2412903D01*
X+9006111Y+2418172D01*
X+9009154Y+2423441D01*
X+9013809Y+2428643D01*
X+9019078Y+2432469D01*
X+9024347Y+2434909D01*
X+9029616Y+2436290D01*
X+9034885Y+2436750D01*
X+9035000Y+2436750D01*
X+9003250Y+2405000D02*
X+9003359Y+2402366D01*
X+9004249Y+2397097D01*
X+9006111Y+2391828D01*
X+9009154Y+2386559D01*
X+9013809Y+2381357D01*
X+9019078Y+2377531D01*
X+9024347Y+2375091D01*
X+9029616Y+2373710D01*
X+9034885Y+2373250D01*
X+9035000Y+2373250D01*
X+9066750Y+2405000D02*
X+9066641Y+2402366D01*
X+9065751Y+2397097D01*
X+9063889Y+2391828D01*
X+9060846Y+2386559D01*
X+9056191Y+2381357D01*
X+9050922Y+2377531D01*
X+9045653Y+2375091D01*
X+9040384Y+2373710D01*
X+9035115Y+2373250D01*
X+9035000Y+2373250D01*
X+8962219Y+1929000D02*
X+8961886Y+1833751D01*
X+8901148Y+1897463D01*
X+8992588Y+1897144D01*
X+8932182Y+2056106D02*
X+8947367Y+2040178D01*
X+8947200Y+1992553D01*
X+8931905Y+1976731D01*
X+8916665Y+1976784D01*
X+8901481Y+1992712D01*
X+8901647Y+2040337D01*
X+8916942Y+2056159D01*
X+8977902Y+2055946D01*
X+8993086Y+2040018D01*
X+8992920Y+1992393D01*
X+8978180Y+2135320D02*
X+8978235Y+2151195D01*
X+8993475Y+2151142D01*
X+8993419Y+2135267D01*
X+8978180Y+2135320D01*
X+8933069Y+2310105D02*
X+8948254Y+2294177D01*
X+8948087Y+2246552D01*
X+8932792Y+2230730D01*
X+8917552Y+2230783D01*
X+8902368Y+2246711D01*
X+8902534Y+2294336D01*
X+8917829Y+2310158D01*
X+8978789Y+2309945D01*
X+8993973Y+2294017D01*
X+8993807Y+2246392D01*
X+8978899Y+2341695D02*
X+8917940Y+2341907D01*
X+8902755Y+2357835D01*
X+8902977Y+2421335D01*
X+8918272Y+2437157D01*
X+8979232Y+2436944D01*
X+8994416Y+2421016D01*
X+8994195Y+2357516D01*
X+8978899Y+2341695D01*
X+8994139Y+2341641D02*
X+8903032Y+2437210D01*
X+8979343Y+2468694D02*
X+8918384Y+2468906D01*
X+8903199Y+2484834D01*
X+8903421Y+2548334D01*
X+8918716Y+2564156D01*
X+8979676Y+2563943D01*
X+8994860Y+2548015D01*
X+8994639Y+2484515D01*
X+8979343Y+2468694D01*
X+8994583Y+2468640D02*
X+8903476Y+2564209D01*
X+8934177Y+2627602D02*
X+8903808Y+2659458D01*
X+8995248Y+2659139D01*
X+8995469Y+2722639D02*
X+8934510Y+2722852D01*
X+8949749Y+2722799D02*
X+8934565Y+2738727D01*
X+8965156Y+2770370D01*
X+8934787Y+2802227D01*
X+8950082Y+2818048D01*
X+8995802Y+2817889D01*
X+8995913Y+2849638D02*
X+8934954Y+2849851D01*
X+8950193Y+2849798D02*
X+8935009Y+2865726D01*
X+8965600Y+2897369D01*
X+8935231Y+2929226D01*
X+8950526Y+2945047D01*
X+8996246Y+2944888D01*
D20*
X+6597920Y+3122920D02*
X+6864620Y+3122920D01*
X+6864620Y+3641080D01*
X+6597920Y+3641080D01*
X+6597920Y+3122920D01*
X+6862080Y+3559800D02*
X+6600460Y+3559800D01*
X+6730000Y+3712200D02*
X+6730000Y+3641080D01*
X+6730000Y+3122920D02*
X+6730000Y+3051800D01*
X+6996700Y+3255000D02*
X+6905260Y+3255000D01*
X+6905260Y+3318500D01*
X+6935740Y+3350250D01*
X+6966220Y+3350250D01*
X+6996700Y+3318500D01*
X+6996700Y+3255000D01*
X+6920500Y+3397875D02*
X+6905260Y+3413750D01*
X+6905260Y+3461375D01*
X+6920500Y+3477250D01*
X+6935740Y+3477250D01*
X+6950980Y+3461375D01*
X+6950980Y+3413750D01*
X+6966220Y+3397875D01*
X+6996700Y+3397875D01*
X+6996700Y+3477250D01*
M02*
