G04 PROTEUS GERBER X2 FILE*
%TF.GenerationSoftware,Labcenter,Proteus,8.13-SP0-Build31525*%
%TF.CreationDate,2024-10-30T04:27:48+00:00*%
%TF.FileFunction,Soldermask,Top*%
%TF.FilePolarity,Negative*%
%TF.Part,Single*%
%TF.SameCoordinates,{7e0819cd-3aa5-4556-a237-21aa8943194a}*%
%FSLAX45Y45*%
%MOMM*%
G01*
%TA.AperFunction,Material*%
%ADD28C,3.302000*%
%ADD29C,4.064000*%
%ADD72C,2.540000*%
%AMPPAD023*
4,1,8,
-0.509800,1.397000,
0.509800,1.397000,
0.889000,1.017800,
0.889000,-1.017800,
0.509800,-1.397000,
-0.509800,-1.397000,
-0.889000,-1.017800,
-0.889000,1.017800,
-0.509800,1.397000,
0*%
%ADD73PPAD023*%
%AMPPAD024*
4,1,36,
1.143000,1.016000,
1.143000,-1.016000,
1.140470,-1.041970,
1.133200,-1.065980,
1.121650,-1.087580,
1.106290,-1.106290,
1.087570,-1.121650,
1.065980,-1.133200,
1.041970,-1.140470,
1.016000,-1.143000,
-1.016000,-1.143000,
-1.041970,-1.140470,
-1.065980,-1.133200,
-1.087570,-1.121650,
-1.106290,-1.106290,
-1.121650,-1.087580,
-1.133200,-1.065980,
-1.140470,-1.041970,
-1.143000,-1.016000,
-1.143000,1.016000,
-1.140470,1.041970,
-1.133200,1.065980,
-1.121650,1.087580,
-1.106290,1.106290,
-1.087570,1.121650,
-1.065980,1.133200,
-1.041970,1.140470,
-1.016000,1.143000,
1.016000,1.143000,
1.041970,1.140470,
1.065980,1.133200,
1.087570,1.121650,
1.106290,1.106290,
1.121650,1.087580,
1.133200,1.065980,
1.140470,1.041970,
1.143000,1.016000,
0*%
%TA.AperFunction,Material*%
%ADD30PPAD024*%
%TA.AperFunction,Material*%
%ADD31C,1.778000*%
%AMPPAD026*
4,1,8,
-1.397000,-0.509800,
-1.397000,0.509800,
-1.017800,0.889000,
1.017800,0.889000,
1.397000,0.509800,
1.397000,-0.509800,
1.017800,-0.889000,
-1.017800,-0.889000,
-1.397000,-0.509800,
0*%
%TA.AperFunction,Material*%
%ADD32PPAD026*%
%AMPPAD027*
4,1,4,
0.560000,-0.560000,
-0.560000,-0.560000,
-0.560000,0.560000,
0.560000,0.560000,
0.560000,-0.560000,
0*%
%ADD33PPAD027*%
%ADD34C,1.120000*%
%TD.AperFunction*%
D28*
X+1630000Y+2390000D03*
X+1122000Y+2390000D03*
X+1620000Y+870000D03*
D29*
X+1112000Y+870000D03*
D72*
X+2960000Y+3234000D03*
X+2960000Y+4250000D03*
D29*
X+3730000Y+4270000D03*
X+3720000Y+3120000D03*
X+3540000Y+3690000D03*
X+4920000Y+4270000D03*
X+4920000Y+3130000D03*
D73*
X+6090000Y+3780000D03*
X+5836000Y+3780000D03*
X+6110000Y+3010000D03*
X+5856000Y+3010000D03*
D72*
X+3474000Y+2400000D03*
X+4490000Y+2400000D03*
D30*
X+4800000Y+580000D03*
D29*
X+4810000Y+1770000D03*
X+5020000Y+1200000D03*
X+3610000Y+620000D03*
X+3610000Y+1770000D03*
X+7010000Y+1800000D03*
X+7010000Y+1292000D03*
D31*
X+2516800Y+2520000D03*
X+2720000Y+2520000D03*
X+2923200Y+2520000D03*
D29*
X+7020000Y+3790000D03*
X+7020000Y+3282000D03*
D72*
X+6474000Y+4570000D03*
X+7490000Y+4570000D03*
D28*
X+1140000Y+3860000D03*
X+1648000Y+3860000D03*
X+2156000Y+3860000D03*
D73*
X+5050000Y+2450000D03*
X+6066000Y+2450000D03*
D32*
X+3280000Y+4680000D03*
X+2264000Y+4680000D03*
D30*
X+5880000Y+1890000D03*
X+5880000Y+1636000D03*
X+5880000Y+1382000D03*
D33*
X+6060000Y+760000D03*
D34*
X+5860000Y+760000D03*
M02*
